<svg width="160" height="160" viewBox="0 0 160 160" fill="none" xmlns="http://www.w3.org/2000/svg">
<g clip-path="url(#clip0_90_11533)">
<path fill-rule="evenodd" clip-rule="evenodd" d="M84.69 138.07L134.23 89.0056C134.381 88.8812 134.528 88.7491 134.67 88.6094C138.598 84.7519 141.686 80.1254 143.743 75.0194C145.8 69.9133 146.781 64.4376 146.625 58.935C146.468 53.4324 145.178 48.0214 142.834 43.0405C140.49 38.0596 137.143 33.6162 133.003 29.9883C128.863 26.3603 124.018 23.626 118.772 21.9565C113.527 20.2869 107.993 19.7181 102.518 20.2855C97.0423 20.853 91.7428 22.5445 86.9511 25.2542C84.4663 26.6593 82.1459 28.3226 80.0261 30.2119C77.9043 28.2994 75.578 26.6146 73.0844 25.1903C68.2894 22.4515 62.9793 20.7352 57.4884 20.1495C51.9975 19.5638 46.4448 20.1213 41.1799 21.7869C35.9151 23.4526 31.0521 26.1903 26.8973 29.8277C22.7425 33.4651 19.3858 37.9234 17.0387 42.9218C14.6915 47.9202 13.4047 53.3504 13.2593 58.8706C13.1139 64.3907 14.113 69.8811 16.1938 74.9962C18.2707 80.1017 21.3803 84.7228 25.3274 88.5696L75.3075 138.07C77.9057 140.643 82.0918 140.643 84.69 138.07ZM45.2017 34.4992C48.7116 33.3888 52.4134 33.0171 56.074 33.4076C59.7346 33.7981 63.2747 34.9423 66.4714 36.7682C68.0009 37.6418 69.436 38.6624 70.7574 39.813L53.3309 57.2395C50.8313 59.7399 49.4271 63.1307 49.4271 66.6662C49.4271 70.2017 50.832 73.5932 53.3316 76.0936L56.9516 79.7136C64.1551 86.9171 75.8429 86.9171 83.0464 79.7136L89.713 73.0469C92.441 70.3189 96.141 68.7864 99.999 68.7864C103.857 68.7864 107.557 70.3189 110.285 73.0469L120.789 83.5513L113.516 90.7544L104.714 81.9521C102.111 79.3486 97.8894 79.3486 95.2859 81.9521C92.6824 84.5556 92.6824 88.7767 95.2859 91.3802L104.043 100.137L96.7693 107.341L88.0474 98.6188C85.4439 96.0153 81.2228 96.0153 78.6193 98.6188C76.0158 101.222 76.0158 105.443 78.6193 108.047L87.2957 116.723L79.9987 123.95L34.69 79.0765L34.6481 79.0353C32.0097 76.4679 29.9315 73.3821 28.5443 69.9721C27.1572 66.562 26.4911 62.9017 26.588 59.2216C26.685 55.5416 27.5428 51.9214 29.1076 48.5891C30.6724 45.2569 32.9101 42.2847 35.68 39.8598C38.4499 37.4348 41.6918 35.6097 45.2017 34.4992ZM129.649 73.5543C130.308 72.4286 130.886 71.2532 131.376 70.0371C132.747 66.633 133.401 62.9826 133.297 59.3142C133.192 55.6458 132.332 52.0384 130.769 48.7178C129.207 45.3972 126.976 42.4349 124.215 40.0163C121.455 37.5977 118.226 35.7749 114.729 34.6618C111.232 33.5488 107.542 33.1695 103.892 33.5478C100.242 33.9261 96.7089 35.0538 93.5144 36.8603C90.3199 38.6668 87.5327 41.1132 85.3272 44.0464C85.0123 44.4652 84.6527 44.8409 84.2578 45.1688L62.7604 66.6662L66.3797 70.2855C68.3762 72.282 71.6218 72.282 73.6183 70.2855L80.2849 63.6188C85.5135 58.3904 92.6048 55.453 99.999 55.453C107.393 55.453 114.484 58.3903 119.713 63.6188L129.649 73.5543Z" fill="white"/>
</g>
<defs>
<clipPath id="clip0_90_11533">
<rect width="160" height="160" fill="white"/>
</clipPath>
</defs>
</svg>
