<svg width="160" height="160" viewBox="0 0 160 160" fill="none" xmlns="http://www.w3.org/2000/svg">
<path fill-rule="evenodd" clip-rule="evenodd" d="M62.7614 23.9052C60.261 21.4048 56.8696 20 53.3333 20H26.6667C23.1305 20 19.7391 21.4048 17.2386 23.9052C14.7381 26.4057 13.3333 29.7971 13.3333 33.3333V126.667C13.3333 130.203 14.7381 133.594 17.2386 136.095C19.7391 138.595 23.1305 140 26.6667 140H39.9856C39.9904 140 39.9952 140 40 140H133.333C136.87 140 140.261 138.595 142.761 136.095C145.262 133.594 146.667 130.203 146.667 126.667V86.6667C146.667 83.1305 145.262 79.7391 142.761 77.2386C140.261 74.7381 136.87 73.3333 133.333 73.3333H106.667V60C106.667 56.4638 105.262 53.0724 102.761 50.5719C100.261 48.0714 96.8696 46.6667 93.3333 46.6667H66.6667L66.6667 33.3333C66.6667 29.7971 65.2619 26.4057 62.7614 23.9052ZM26.6667 126.667L26.6667 33.3333H53.3333V126.667H26.6667ZM66.6667 126.667L66.6667 60L93.3333 60V126.667H66.6667ZM106.667 126.667V86.6667H133.333V126.667L106.667 126.667Z" fill="white"/>
</svg>
