<svg width="140" height="19" viewBox="0 0 140 19" fill="none" xmlns="http://www.w3.org/2000/svg">
<path fill-rule="evenodd" clip-rule="evenodd" d="M131.896 0.0791898L130.245 0.0150757L130.237 0.0190828C130.177 0.56806 130.148 1.8263 130.148 2.44741C130.148 3.89398 130.237 5.11616 130.409 6.11393C130.513 6.79515 130.73 7.39621 131.062 7.91714C130.469 8.45009 130.036 8.92694 129.76 9.34769C129.155 10.2573 128.85 11.2511 128.85 12.321C128.85 13.8557 129.507 15.0138 130.826 15.7952C131.823 16.4002 133.194 16.7048 134.929 16.7048C136.103 16.7048 137.225 16.5004 138.295 16.0957C138.86 15.8793 139.349 15.6108 139.77 15.2943L139.726 14.2324C138.539 14.9416 137.097 15.2943 135.406 15.2943C132.004 15.2943 130.305 14.1803 130.305 11.9523C130.305 11.199 130.473 10.5058 130.806 9.86862C131.006 9.49195 131.339 9.05918 131.803 8.5663C132.036 8.72658 132.24 8.8468 132.413 8.93495C132.805 9.12329 133.302 9.21545 133.911 9.21545C135.129 9.21545 136.111 8.97503 136.864 8.49818C137.57 8.03335 137.926 7.42827 137.926 6.67493C137.926 6.16602 137.758 5.78935 137.425 5.54492C137.077 5.30048 136.644 5.17626 136.123 5.17626C135.486 5.17626 134.737 5.40066 133.867 5.84946C133.246 6.17003 132.669 6.56674 132.132 7.04359C131.815 6.4345 131.655 5.3646 131.655 3.82987C131.655 2.61571 131.735 0.916681 131.896 0.0791898ZM133.07 8.19363C132.925 8.10548 132.753 7.95321 132.549 7.73682C133.811 6.55071 134.965 5.95765 136.023 5.95765C136.616 5.95765 136.913 6.20209 136.913 6.69497C136.913 7.08767 136.74 7.42827 136.392 7.71679C135.839 8.19363 135.081 8.43406 134.112 8.43406C133.679 8.43406 133.33 8.35392 133.07 8.19363ZM51.5696 14.8615L53.2847 15.9675H53.2887C53.3608 15.4866 53.469 15.0619 53.6133 14.6852C53.8136 14.1482 54.1182 13.7355 54.5229 13.447C54.9276 13.1425 55.3123 12.9902 55.6729 12.9902C55.8893 12.9902 56.0977 13.0703 56.302 13.2306C56.5064 13.3909 56.8671 13.8076 57.388 14.4889C58.1373 15.4586 58.7544 16.1478 59.2313 16.5525C59.9285 17.1015 60.8862 17.378 61.4031 17.378C64.6249 17.378 67.1814 13.443 67.1814 11.5276L65.5024 10.5979C65.3982 11.5677 64.7451 15.9234 62.0322 15.9234C61.6155 15.9234 61.1747 15.7792 60.7099 15.4906C60.2731 15.2182 59.5999 14.6531 58.6903 13.7996C57.9971 13.1344 57.5122 12.7137 57.2357 12.5414C56.859 12.297 56.4904 12.1727 56.1297 12.1727C55.5046 12.1727 54.8194 12.4372 54.0661 12.9742C54.6752 11.4715 55.6609 9.74841 57.0193 7.80896C58.3216 5.98572 59.4316 4.54315 60.3412 3.74573C60.6177 3.49729 60.754 3.29693 60.754 3.13665C60.754 3.00842 60.6859 2.86416 60.5576 2.70388C60.3252 2.41536 59.9485 2.18295 59.4276 2.01064C58.9668 1.85036 58.51 1.77021 58.0612 1.77021H57.8648L57.5603 2.20298C57.6925 2.19096 57.7927 2.18295 57.8648 2.18295C58.1253 2.18295 58.3858 2.23905 58.6462 2.35525C58.8786 2.45944 58.9948 2.6077 58.9948 2.81207C58.9948 3.0004 58.9147 3.20877 58.7544 3.44119C58.5941 3.6736 58.1654 4.21456 57.4721 5.06808C56.27 6.53069 55.1079 8.30585 53.9779 10.1291C52.8479 11.9523 52.0465 13.5311 51.5696 14.8615ZM4.36112 7.55648L5.05435 7.92513C4.44527 9.53199 3.96842 10.9706 3.6238 12.2448C3.20305 13.7796 2.99468 14.8414 2.99468 15.4345C2.99468 15.9114 3.08284 16.4563 3.25515 17.0614L1.80056 17.386C0.774733 16.0155 0.257812 14.1482 0.257812 11.788C0.257812 9.42781 0.654519 6.89129 1.45194 4.25861C1.61222 3.73768 1.69237 3.37704 1.69237 3.17267C1.69237 3.02842 1.64829 2.88416 1.56013 2.7399L1.64829 2.5676L3.6238 2.87214C3.24713 3.68158 2.85844 4.79156 2.45372 6.19405C1.84464 8.32184 1.54009 10.2292 1.54009 11.9243C1.54009 13.2266 1.69237 14.3045 1.99691 15.158H2.08507C2.28943 14.028 2.62603 12.6616 3.10688 11.0547C3.49958 9.76842 3.91632 8.60234 4.36512 7.56049L4.36112 7.55648ZM6.66121 6.25416L6.31259 5.34454C6.8776 4.91177 7.5548 4.57116 8.35222 4.32272C9.2939 4.01818 10.2035 3.86591 11.0851 3.86591C12.0268 3.86591 12.8522 4.04623 13.5575 4.40687C13.5575 4.40687 12.9284 5.81738 12.7961 5.81738C12.143 5.81738 11.3255 6.26618 10.3438 7.16378C8.85311 8.53823 8.10779 9.9848 8.10779 11.5035C8.10779 13.2706 9.14163 14.1522 11.2133 14.1522C12.6599 14.1522 14.8077 14.0961 16.098 13.7916L15.5771 15.4946C14.7075 15.6108 13.8781 15.6669 13.0806 15.6669C11.1412 15.6669 9.70262 15.3904 8.76095 14.8414C7.63094 14.1923 7.06994 13.1504 7.06994 11.7159C7.06994 10.081 7.74314 8.57028 9.08953 7.17981C9.85489 6.38239 10.5441 5.85745 11.1532 5.59699C11.3135 5.52486 11.3936 5.45273 11.3936 5.3806C11.3936 5.2083 11.1532 5.12014 10.6764 5.12014C9.27386 5.12014 7.93548 5.49681 6.66121 6.25015V6.25416ZM35.5655 8.64243C37.1043 8.15757 39.3162 9.12329 39.2761 11.4955C39.2361 13.1224 36.8157 13.6834 36.7556 13.6834C36.7356 13.6834 35.7819 12.5614 35.7819 12.5614C35.7819 12.5614 37.9618 12.914 37.7975 11.3513C37.6092 9.76844 36.6915 8.72258 35.5695 9.05918L31.1737 10.3375L33.9466 18.0151H32.3839L29.7632 10.8063L27.5993 12.0405L27.431 11.1629L29.6189 10.3895L28.7574 8.01331C28.509 7.34813 29.07 6.59479 30.6127 6.59479C31.7187 6.59479 33.4057 6.68295 34.0709 6.91536C33.6942 6.31028 33.1532 5.6451 33.0691 5.56095L33.3095 4.95988C34.2993 4.95988 36.4271 7.40423 36.4271 7.40423L34.4235 7.8931C34.0428 7.52044 31.7347 7.42827 31.0695 7.42827C30.6127 7.42827 30.196 7.51242 30.3402 8.01331V8.03335L31.0054 9.92071L35.5695 8.64243H35.5655ZM104.275 10.9786C106.067 10.0009 109.609 8.64646 111.921 8.62242C114.253 8.60238 116.048 10.3094 116.068 11.9163C116.132 15.106 112.879 16.6447 111.524 16.8971V16.232C113.191 15.8553 115.151 14.1282 114.63 12.0846C114.173 10.2092 112.338 9.72839 111.316 9.72839C109.334 9.72839 107.498 10.7645 105.724 11.7655L105.724 11.7656L105.724 11.7658C105.277 12.0175 104.835 12.267 104.396 12.4973L104.271 10.9786H104.275ZM91.8482 14.9776C91.167 14.5128 90.4377 14.1802 89.6563 13.9799C89.7204 13.3988 89.9368 11.4193 89.6403 8.78662C90.6821 8.58226 91.7761 8.30577 92.5855 7.94513L91.9564 6.38234C91.3193 6.9193 90.3856 7.38413 89.4599 7.65661C89.5401 6.15795 89.3397 5.50478 89.1434 5.2884L87.833 6.01369C88.1817 6.39036 88.374 7.02749 88.4181 7.92509C87.9693 8.02527 87.4924 8.07736 86.9875 8.07736C85.7413 8.07736 85.1202 7.67264 85.1202 6.8632C85.1202 6.39837 85.3727 5.93755 85.8816 5.47273C86.671 4.69935 88.6986 3.55331 89.9408 3.78172L90.0931 2.28305C89.6883 2.22695 89.2756 2.19489 88.8549 2.19489C86.8994 2.19489 85.2805 2.74387 83.9942 3.84583L84.451 4.49498C85.3767 3.76969 86.3664 3.40905 87.4243 3.40905C87.785 3.40905 88.2418 3.45714 88.7867 3.54529C88.7787 3.54529 86.7111 4.14236 85.4288 5.18822C84.6634 5.7372 84.2787 6.40238 84.2787 7.18377C84.2787 8.41396 85.1523 9.02705 86.9034 9.02705C87.4404 9.02705 87.9613 9.00702 88.4662 8.96294C88.4501 10.8743 88.4101 13.0021 88.338 13.7394C87.9332 13.6954 87.5405 13.6753 87.1679 13.6753C86.3704 13.6753 85.6932 13.7835 85.1282 13.9999C84.1866 14.3485 83.7177 14.9095 83.7177 15.6909C83.7177 16.6887 84.4991 17.1896 86.0619 17.1896C87.1038 17.1896 87.9292 16.9131 88.5343 16.3641C88.8669 16.0596 89.1554 15.6108 89.4038 15.0177C90.4016 15.6108 91.2551 16.4483 91.9644 17.5342L93.1585 16.3641C92.8981 15.8592 92.4653 15.3944 91.8562 14.9736L91.8482 14.9776ZM87.4403 15.6709C87.0196 16.0596 86.4506 16.2559 85.7253 16.2559C85 16.2559 84.6193 16.0235 84.6193 15.5627C84.6193 15.2301 84.8437 14.9496 85.2925 14.7172C85.7413 14.4848 86.3504 14.3686 87.1158 14.3686C87.4203 14.3686 87.7649 14.4046 88.1576 14.4768C87.9533 15.0257 87.7168 15.4264 87.4403 15.6709ZM79.2353 5.96965C79.4838 4.75549 79.9967 3.76172 80.7781 2.99635L80.7821 3.00036C81.1427 2.65174 81.5675 2.37926 82.0603 2.17489L82.3408 2.75993C81.88 2.92022 81.5474 3.16065 81.3431 3.47721C80.6899 4.43091 80.3653 6.38238 80.3653 9.33564C80.3653 9.45776 80.365 9.57674 80.3647 9.69368C80.3604 11.3648 80.3571 12.6176 81.2709 16.6286L79.3435 17.5422C79.1832 15.8192 78.9548 13.0182 78.9548 10.7461C78.9548 8.4741 79.047 6.87927 79.2353 5.96965Z" fill="white"/>
<path d="M130.245 0.0150757L130.245 0.00367289L130.24 0.00613217L130.245 0.0150757ZM131.896 0.0791898L131.905 0.0810695C131.906 0.0782079 131.905 0.0752497 131.903 0.0729687C131.902 0.0706876 131.899 0.0693104 131.896 0.0691974L131.896 0.0791898ZM130.237 0.0190828L130.228 0.00258321L130.227 0.0179945L130.237 0.0190828ZM130.409 6.11393L130.419 6.11242L130.419 6.11223L130.409 6.11393ZM131.062 7.91714L131.103 7.96274L131.071 7.91176L131.062 7.91714ZM129.76 9.34769L129.768 9.35323L129.768 9.35318L129.76 9.34769ZM130.826 15.7952L130.831 15.7866L130.831 15.7866L130.826 15.7952ZM138.295 16.0957L138.299 16.1051L138.299 16.105L138.295 16.0957ZM139.77 15.2943L139.78 15.3084L139.78 15.2939L139.77 15.2943ZM139.726 14.2324L139.736 14.232C139.735 14.2284 139.733 14.2253 139.73 14.2236C139.727 14.2219 139.723 14.222 139.72 14.2238L139.726 14.2324ZM130.806 9.86862L130.797 9.86392L130.797 9.86399L130.806 9.86862ZM131.803 8.5663L131.841 8.51206L131.796 8.55944L131.803 8.5663ZM132.413 8.93495L132.408 8.94386L132.408 8.94397L132.413 8.93495ZM136.864 8.49818L136.87 8.50663L136.87 8.50653L136.864 8.49818ZM137.425 5.54492L137.431 5.53686L137.431 5.53673L137.425 5.54492ZM133.867 5.84946L133.872 5.85835L133.867 5.84946ZM132.132 7.04359L132.123 7.0482C132.125 7.05093 132.127 7.05286 132.13 7.05342C132.133 7.05398 132.136 7.05311 132.139 7.05106L132.132 7.04359ZM132.549 7.73682L132.542 7.72953C132.54 7.73135 132.539 7.73387 132.539 7.73652C132.539 7.73918 132.54 7.74176 132.542 7.74369L132.549 7.73682ZM133.07 8.19363L133.075 8.18512L133.075 8.1851L133.07 8.19363ZM136.392 7.71679L136.385 7.70908L136.385 7.70921L136.392 7.71679ZM53.2847 15.9675L53.2782 15.9775H53.2847V15.9675ZM51.5696 14.8615L51.5281 14.8466L51.5642 14.8699L51.5696 14.8615ZM53.2887 15.9675V16.0349L53.2986 15.969L53.2887 15.9675ZM53.6133 14.6852L53.6226 14.6888L53.6226 14.6887L53.6133 14.6852ZM54.5229 13.447L54.5287 13.4551L54.5289 13.455L54.5229 13.447ZM56.302 13.2306L56.2959 13.2385L56.302 13.2306ZM57.388 14.4889L57.38 14.4949L57.3801 14.495L57.388 14.4889ZM59.2313 16.5525L59.2248 16.5602L59.2251 16.5604L59.2313 16.5525ZM67.1814 11.5276H67.2021L67.1863 11.5188L67.1814 11.5276ZM65.5024 10.5979L65.5073 10.5892C65.5043 10.5876 65.5008 10.5875 65.4978 10.5891C65.4948 10.5906 65.4928 10.5935 65.4925 10.5969L65.5024 10.5979ZM60.7099 15.4906L60.7046 15.4991L60.7046 15.4991L60.7099 15.4906ZM58.6903 13.7996L58.6834 13.8068L58.6835 13.8069L58.6903 13.7996ZM57.2357 12.5414L57.2303 12.5498L57.2304 12.5499L57.2357 12.5414ZM54.0661 12.9742L54.0568 12.9704C54.0551 12.9745 54.0564 12.9793 54.0599 12.982C54.0634 12.9848 54.0682 12.9849 54.0719 12.9823L54.0661 12.9742ZM57.0193 7.80896L57.0112 7.80315L57.0111 7.80323L57.0193 7.80896ZM60.3412 3.74573L60.3478 3.75325L60.3479 3.75317L60.3412 3.74573ZM60.5576 2.70388L60.5654 2.69763L60.5654 2.6976L60.5576 2.70388ZM59.4276 2.01064L59.4243 2.02009L59.4245 2.02014L59.4276 2.01064ZM57.8648 1.77021V1.75284L57.8567 1.76446L57.8648 1.77021ZM57.5603 2.20298L57.5521 2.19723C57.5499 2.20042 57.5497 2.20461 57.5516 2.20799C57.5536 2.21136 57.5573 2.2133 57.5612 2.21294L57.5603 2.20298ZM58.6462 2.35525L58.6503 2.34613L58.6503 2.34612L58.6462 2.35525ZM57.4721 5.06808L57.4799 5.07443L57.4799 5.07439L57.4721 5.06808ZM5.05435 7.92513L5.1285 7.95324L5.05905 7.91631L5.05435 7.92513ZM4.36112 7.55648L4.36581 7.54765C4.36144 7.54532 4.35602 7.54655 4.35308 7.55053C4.35013 7.55451 4.35054 7.56005 4.35404 7.56355L4.36112 7.55648ZM3.6238 12.2448L3.63345 12.2475L3.63346 12.2474L3.6238 12.2448ZM3.25515 17.0614L3.25733 17.0712C3.26001 17.0706 3.26233 17.0689 3.26374 17.0665C3.26515 17.0641 3.26552 17.0613 3.26477 17.0587L3.25515 17.0614ZM1.80056 17.386L1.78106 17.4006L1.80274 17.3957L1.80056 17.386ZM1.45194 4.25861L1.44238 4.25567L1.44237 4.25571L1.45194 4.25861ZM1.56013 2.7399L1.54308 2.73118L1.5516 2.74512L1.56013 2.7399ZM1.64829 2.5676L1.65313 2.53617L1.63939 2.56304L1.64829 2.5676ZM3.6238 2.87214L3.63287 2.87636C3.6342 2.87351 3.63411 2.8702 3.63262 2.86742C3.63114 2.86465 3.62844 2.86274 3.62533 2.86226L3.6238 2.87214ZM2.45372 6.19405L2.44411 6.19128L2.44411 6.1913L2.45372 6.19405ZM1.99691 15.158L1.96888 15.168H1.99691V15.158ZM2.08507 15.158V15.2142L2.09491 15.1598L2.08507 15.158ZM3.10688 11.0547L3.09732 11.0518L3.0973 11.0518L3.10688 11.0547ZM4.36512 7.56049L4.38996 7.57119L4.37219 7.55342L4.36512 7.56049ZM6.31259 5.34454L6.29116 5.31656L6.30325 5.34812L6.31259 5.34454ZM6.66121 6.25416L6.65187 6.25774C6.6536 6.26224 6.65829 6.26487 6.66303 6.26399C6.66777 6.26312 6.67121 6.25898 6.67121 6.25416H6.66121ZM8.35222 4.32272L8.35519 4.33227L8.3553 4.33224L8.35222 4.32272ZM13.5575 4.40687L13.7294 4.48354L13.562 4.39797L13.5575 4.40687ZM10.3438 7.16378L10.337 7.1564L10.337 7.15643L10.3438 7.16378ZM16.098 13.7916L16.1076 13.7945C16.1086 13.7911 16.1078 13.7874 16.1053 13.7847C16.1029 13.7821 16.0992 13.781 16.0957 13.7818L16.098 13.7916ZM15.5771 15.4946L15.5803 15.5184L15.5866 15.4975L15.5771 15.4946ZM8.76095 14.8414L8.76598 14.8328L8.76593 14.8328L8.76095 14.8414ZM9.08953 7.17981L9.09672 7.18676L9.09675 7.18673L9.08953 7.17981ZM11.1532 5.59699L11.1571 5.60619L11.1573 5.60611L11.1532 5.59699ZM6.66121 6.25015L6.65121 6.23324V6.25015H6.66121ZM39.2761 11.4955L39.2861 11.4958V11.4957L39.2761 11.4955ZM35.5655 8.64243L35.5625 8.6329C35.5578 8.63438 35.5549 8.63908 35.5556 8.64395C35.5564 8.64883 35.5606 8.65243 35.5655 8.65243V8.64243ZM35.7819 12.5614L35.7835 12.5515C35.7794 12.5509 35.7753 12.5529 35.7732 12.5565C35.7711 12.5602 35.7716 12.5647 35.7743 12.5679L35.7819 12.5614ZM37.7975 11.3513L37.8074 11.3502L37.8074 11.3501L37.7975 11.3513ZM35.5695 9.05918L35.5723 9.06878L35.5724 9.06875L35.5695 9.05918ZM31.1737 10.3375L31.1709 10.3278C31.1683 10.3286 31.166 10.3305 31.1648 10.3329C31.1635 10.3354 31.1634 10.3382 31.1643 10.3408L31.1737 10.3375ZM33.9466 18.0151V18.0251C33.9499 18.0251 33.953 18.0235 33.9548 18.0209C33.9567 18.0182 33.9572 18.0148 33.956 18.0117L33.9466 18.0151ZM32.3839 18.0151L32.3563 18.0251H32.3839V18.0151ZM29.7632 10.8063L29.7726 10.8029C29.7716 10.8001 29.7694 10.7979 29.7666 10.7969C29.7639 10.7959 29.7608 10.7961 29.7582 10.7976L29.7632 10.8063ZM27.5993 12.0405L27.5895 12.0424C27.5901 12.0455 27.5922 12.0482 27.5952 12.0496C27.5981 12.0509 27.6015 12.0508 27.6043 12.0492L27.5993 12.0405ZM27.431 11.1629L27.4088 11.0999L27.4212 11.1648L27.431 11.1629ZM29.6189 10.3895L29.6223 10.399C29.6248 10.3981 29.6268 10.3962 29.628 10.3938C29.6291 10.3914 29.6292 10.3886 29.6283 10.3861L29.6189 10.3895ZM28.7574 8.01331L28.7668 8.0099L28.7668 8.00981L28.7574 8.01331ZM34.0709 6.91536L34.0676 6.9248C34.0716 6.9262 34.076 6.92492 34.0787 6.92161C34.0813 6.9183 34.0816 6.91367 34.0793 6.91007L34.0709 6.91536ZM33.0691 5.56095L33.0455 5.55152L33.062 5.56802L33.0691 5.56095ZM33.3095 4.95988V4.93295L33.3002 4.95616L33.3095 4.95988ZM36.4271 7.40423L36.4294 7.41394C36.4328 7.41312 36.4355 7.41058 36.4366 7.40726C36.4376 7.40393 36.4369 7.4003 36.4346 7.39766L36.4271 7.40423ZM34.4235 7.8931L34.4103 7.90662L34.4259 7.90281L34.4235 7.8931ZM30.3402 8.01331H30.3506L30.3498 8.01055L30.3402 8.01331ZM30.3402 8.03335H30.3296L30.3308 8.03667L30.3402 8.03335ZM31.0054 9.92071L30.8619 9.97128L31.0081 9.93034L31.0054 9.92071ZM35.5695 8.64243L35.5722 8.65206C35.577 8.65071 35.5801 8.64602 35.5794 8.64107C35.5788 8.63612 35.5745 8.63243 35.5695 8.63243V8.64243ZM111.921 8.62242L111.921 8.61242H111.921L111.921 8.62242ZM104.275 10.9786V10.99L104.28 10.9874L104.275 10.9786ZM116.068 11.9163L116.058 11.9164L116.058 11.9165L116.068 11.9163ZM111.524 16.8971H111.514C111.514 16.9001 111.516 16.9029 111.518 16.9048C111.52 16.9067 111.523 16.9075 111.526 16.907L111.524 16.8971ZM111.524 16.232L111.514 16.1877V16.232H111.524ZM114.63 12.0846L114.62 12.0869L114.62 12.087L114.63 12.0846ZM105.724 11.7655L105.719 11.7568L105.719 11.7568L105.724 11.7655ZM105.724 11.7656L105.729 11.7744L105.729 11.7743L105.724 11.7656ZM105.724 11.7658L105.719 11.757L105.719 11.757L105.724 11.7658ZM104.396 12.4973L104.386 12.4981C104.386 12.5015 104.388 12.5045 104.391 12.5061C104.394 12.5077 104.397 12.5077 104.4 12.5062L104.396 12.4973ZM104.271 10.9786V10.9686C104.269 10.9686 104.266 10.9698 104.264 10.9718C104.262 10.9739 104.261 10.9766 104.261 10.9794L104.271 10.9786ZM89.6563 13.9799L89.5856 13.9721L89.6538 13.9896L89.6563 13.9799ZM91.8482 14.9776L91.8366 14.9946L91.8527 14.9866L91.8482 14.9776ZM89.6403 8.78662L89.6166 8.66613L89.6303 8.78774L89.6403 8.78662ZM92.5855 7.94513L92.6972 8.1959L92.5948 7.94139L92.5855 7.94513ZM91.9564 6.38234L91.9657 6.37861C91.9645 6.37564 91.9619 6.37341 91.9588 6.37264C91.9557 6.37187 91.9524 6.37263 91.9499 6.3747L91.9564 6.38234ZM89.4599 7.65661L89.45 7.65608C89.4498 7.65932 89.4512 7.66244 89.4537 7.66446C89.4563 7.66647 89.4596 7.66712 89.4628 7.66621L89.4599 7.65661ZM89.1434 5.2884L89.1757 5.25909L89.1385 5.27965L89.1434 5.2884ZM87.833 6.01369L87.8282 6.00494C87.8255 6.00643 87.8237 6.00907 87.8232 6.0121C87.8227 6.01514 87.8236 6.01823 87.8257 6.02048L87.833 6.01369ZM88.4181 7.92509L88.4309 7.9826L88.4281 7.9246L88.4181 7.92509ZM85.8816 5.47273L85.8883 5.48011L85.8886 5.47987L85.8816 5.47273ZM89.9408 3.78172L89.939 3.79155C89.9417 3.79206 89.9446 3.79139 89.9468 3.78971C89.949 3.78804 89.9505 3.7855 89.9508 3.78273L89.9408 3.78172ZM90.0931 2.28305L90.3658 2.31076L90.0944 2.27314L90.0931 2.28305ZM83.9942 3.84583L83.9258 3.76591L83.986 3.85158L83.9942 3.84583ZM84.451 4.49498L84.4428 4.50074C84.4444 4.50298 84.4469 4.50448 84.4496 4.50488C84.4523 4.50528 84.455 4.50455 84.4572 4.50286L84.451 4.49498ZM88.7867 3.54529V3.55529C88.792 3.55529 88.7963 3.55129 88.7967 3.5461C88.7971 3.5409 88.7935 3.53625 88.7883 3.53542L88.7867 3.54529ZM85.4288 5.18822L85.4346 5.19636L85.4351 5.19597L85.4288 5.18822ZM88.4662 8.96294L88.4762 8.96302C88.4762 8.9602 88.475 8.95751 88.473 8.9556C88.4709 8.95368 88.4681 8.95273 88.4653 8.95298L88.4662 8.96294ZM88.338 13.7394L88.3369 13.7494C88.3395 13.7497 88.3422 13.7489 88.3443 13.7472C88.3463 13.7455 88.3476 13.7431 88.3479 13.7404L88.338 13.7394ZM85.1282 13.9999L85.1317 14.0093L85.1318 14.0092L85.1282 13.9999ZM88.5343 16.3641L88.541 16.3715L88.541 16.3715L88.5343 16.3641ZM89.4038 15.0177L89.409 15.0091C89.4065 15.0076 89.4035 15.0073 89.4007 15.0082C89.398 15.0091 89.3957 15.0112 89.3946 15.0139L89.4038 15.0177ZM91.9644 17.5342L91.956 17.5397C91.9577 17.5422 91.9603 17.5438 91.9633 17.5441C91.9663 17.5445 91.9693 17.5434 91.9714 17.5413L91.9644 17.5342ZM93.1585 16.3641L93.1823 16.3884L93.1674 16.3595L93.1585 16.3641ZM91.8562 14.9736L91.868 14.9566L91.8517 14.9647L91.8562 14.9736ZM87.4403 15.6709L87.4337 15.6634L87.4336 15.6635L87.4403 15.6709ZM88.1576 14.4768L88.167 14.4802C88.168 14.4775 88.1678 14.4744 88.1663 14.4718C88.1649 14.4692 88.1623 14.4675 88.1594 14.4669L88.1576 14.4768ZM80.7781 2.99635L81.4724 2.3023L80.7711 2.98921L80.7781 2.99635ZM79.2353 5.96965L79.2451 5.97167V5.97165L79.2353 5.96965ZM80.7821 3.00036L80.3603 3.42199L80.789 3.00755L80.7821 3.00036ZM82.0603 2.17489L82.2273 2.09483L82.0565 2.16565L82.0603 2.17489ZM82.3408 2.75993L82.3441 2.76938C82.3468 2.76844 82.349 2.76641 82.3501 2.76378C82.3512 2.76115 82.3511 2.75818 82.3499 2.75561L82.3408 2.75993ZM81.3431 3.47721L81.3513 3.48286L81.3515 3.48263L81.3431 3.47721ZM80.3647 9.69368L80.3547 9.69365L80.3647 9.69368ZM81.2709 16.6286L81.2907 16.6703L81.2807 16.6264L81.2709 16.6286ZM79.3435 17.5422L79.3335 17.5432C79.3339 17.5464 79.3357 17.5493 79.3386 17.5509C79.3414 17.5526 79.3448 17.5527 79.3478 17.5513L79.3435 17.5422ZM130.244 0.0250682L131.895 0.0891823L131.896 0.0691974L130.245 0.00508322L130.244 0.0250682ZM130.241 0.0280263L130.249 0.0240192L130.24 0.00613217L130.232 0.0101393L130.241 0.0280263ZM130.158 2.44741C130.158 1.82629 130.187 0.568546 130.247 0.0201712L130.227 0.0179945C130.167 0.567574 130.139 1.82631 130.139 2.44741H130.158ZM130.419 6.11223C130.247 5.11519 130.158 3.89362 130.158 2.44741H130.139C130.139 3.89434 130.227 5.11712 130.399 6.11563L130.419 6.11223ZM131.071 7.91176C130.739 7.39215 130.523 6.79244 130.419 6.11242L130.399 6.11544C130.503 6.79785 130.72 7.40028 131.054 7.92252L131.071 7.91176ZM129.768 9.35318C130.044 8.93343 130.476 8.45723 131.069 7.92458L131.055 7.9097C130.462 8.44295 130.029 8.92045 129.751 9.3422L129.768 9.35318ZM128.86 12.321C128.86 11.2531 129.164 10.2612 129.768 9.35323L129.751 9.34215C129.145 10.2534 128.84 11.2491 128.84 12.321H128.86ZM130.831 15.7866C129.516 15.007 128.86 13.8522 128.86 12.321H128.84C128.84 13.8592 129.499 15.0206 130.821 15.8038L130.831 15.7866ZM134.929 16.6948C133.195 16.6948 131.827 16.3904 130.831 15.7866L130.821 15.8037C131.82 16.4101 133.193 16.7148 134.929 16.7148V16.6948ZM138.291 16.0863C137.223 16.4906 136.102 16.6948 134.929 16.6948V16.7148C136.104 16.7148 137.227 16.5102 138.299 16.1051L138.291 16.0863ZM139.764 15.2863C139.344 15.6022 138.856 15.8703 138.291 16.0864L138.299 16.105C138.864 15.8884 139.354 15.6194 139.776 15.3023L139.764 15.2863ZM139.716 14.2328L139.76 15.2947L139.78 15.2939L139.736 14.232L139.716 14.2328ZM135.406 15.3043C137.098 15.3043 138.543 14.9514 139.731 14.241L139.72 14.2238C138.536 14.9319 137.095 15.2843 135.406 15.2843V15.3043ZM130.295 11.9523C130.295 13.0693 130.721 13.9081 131.574 14.4672C132.426 15.0257 133.704 15.3043 135.406 15.3043V15.2843C133.706 15.2843 132.433 15.0058 131.585 14.4504C130.738 13.8955 130.315 13.0633 130.315 11.9523H130.295ZM130.797 9.86399C130.463 10.5026 130.295 11.1974 130.295 11.9523H130.315C130.315 11.2005 130.483 10.5089 130.815 9.87324L130.797 9.86399ZM131.796 8.55944C131.331 9.05262 130.998 9.48613 130.797 9.86392L130.814 9.87331C131.014 9.49776 131.346 9.06573 131.811 8.57316L131.796 8.55944ZM132.417 8.92605C132.245 8.83811 132.041 8.71813 131.809 8.55807L131.798 8.57453C132.031 8.73504 132.235 8.85548 132.408 8.94386L132.417 8.92605ZM133.911 9.20545C133.303 9.20545 132.808 9.11342 132.417 8.92594L132.408 8.94397C132.803 9.13316 133.301 9.22545 133.911 9.22545V9.20545ZM136.859 8.48973C136.108 8.96527 135.128 9.20545 133.911 9.20545V9.22545C135.131 9.22545 136.114 8.98479 136.87 8.50663L136.859 8.48973ZM137.916 6.67493C137.916 7.4244 137.562 8.02655 136.859 8.48983L136.87 8.50653C137.578 8.04015 137.936 7.43214 137.936 6.67493H137.916ZM137.42 5.55298C137.749 5.7951 137.916 6.16841 137.916 6.67493H137.936C137.936 6.16364 137.767 5.78361 137.431 5.53686L137.42 5.55298ZM136.123 5.18626C136.642 5.18626 137.073 5.31007 137.42 5.55311L137.431 5.53673C137.081 5.29089 136.646 5.16626 136.123 5.16626V5.18626ZM133.872 5.85835C134.741 5.40992 135.488 5.18626 136.123 5.18626V5.16626C135.484 5.16626 134.733 5.39141 133.863 5.84058L133.872 5.85835ZM132.139 7.05106C132.675 6.57476 133.251 6.17853 133.872 5.85835L133.863 5.84058C133.241 6.16154 132.663 6.55872 132.125 7.03611L132.139 7.05106ZM131.645 3.82987C131.645 5.36471 131.805 6.43678 132.123 7.0482L132.141 7.03898C131.826 6.43222 131.665 5.36449 131.665 3.82987H131.645ZM131.886 0.0773101C131.725 0.915802 131.645 2.61564 131.645 3.82987H131.665C131.665 2.61577 131.745 0.917559 131.905 0.0810695L131.886 0.0773101ZM132.542 7.74369C132.746 7.96027 132.919 8.11331 133.064 8.20217L133.075 8.1851C132.932 8.09764 132.76 7.94614 132.556 7.72996L132.542 7.74369ZM136.023 5.94765C134.961 5.94765 133.805 6.54274 132.542 7.72953L132.556 7.74411C133.817 6.55868 134.969 5.96765 136.023 5.96765V5.94765ZM136.923 6.69497C136.923 6.44645 136.848 6.2589 136.697 6.13378C136.546 6.00895 136.321 5.94765 136.023 5.94765V5.96765C136.318 5.96765 136.538 6.02857 136.684 6.14919C136.829 6.2695 136.903 6.45061 136.903 6.69497H136.923ZM136.398 7.72449C136.749 7.43438 136.923 7.09109 136.923 6.69497H136.903C136.903 7.08425 136.732 7.42217 136.385 7.70908L136.398 7.72449ZM134.112 8.44406C135.083 8.44406 135.843 8.20321 136.398 7.72436L136.385 7.70921C135.834 8.18406 135.08 8.42406 134.112 8.42406V8.44406ZM133.064 8.20215C133.327 8.36373 133.678 8.44406 134.112 8.44406V8.42406C133.68 8.42406 133.333 8.34411 133.075 8.18512L133.064 8.20215ZM53.2901 15.9591L51.575 14.8531L51.5642 14.8699L53.2793 15.9759L53.2901 15.9591ZM53.2887 15.9575H53.2847V15.9775H53.2887V15.9575ZM53.6039 14.6816C53.4594 15.0591 53.351 15.4846 53.2788 15.966L53.2986 15.969C53.3706 15.4887 53.4786 15.0647 53.6226 14.6888L53.6039 14.6816ZM54.5171 13.4389C54.1105 13.7287 53.8048 14.1432 53.6039 14.6817L53.6226 14.6887C53.8224 14.1533 54.1258 13.7423 54.5287 13.4551L54.5171 13.4389ZM55.6729 12.9802C55.3094 12.9802 54.9226 13.1337 54.5169 13.439L54.5289 13.455C54.9326 13.1512 55.3152 13.0002 55.6729 13.0002V12.9802ZM56.3082 13.2227C56.1025 13.0614 55.892 12.9802 55.6729 12.9802V13.0002C55.8866 13.0002 56.0929 13.0793 56.2959 13.2385L56.3082 13.2227ZM57.3959 14.4828C56.8752 13.8018 56.5138 13.384 56.3082 13.2227L56.2959 13.2385C56.4991 13.3978 56.8589 13.8135 57.38 14.4949L57.3959 14.4828ZM59.2377 16.5449C58.7617 16.1409 58.1451 15.4523 57.3959 14.4827L57.3801 14.495C58.1295 15.4648 58.7471 16.1547 59.2248 16.5602L59.2377 16.5449ZM61.4031 17.368C61.1461 17.368 60.7786 17.2992 60.3881 17.1617C59.9977 17.0242 59.585 16.8183 59.2374 16.5447L59.2251 16.5604C59.5747 16.8357 59.9895 17.0425 60.3815 17.1806C60.7734 17.3185 61.1432 17.388 61.4031 17.388V17.368ZM67.1714 11.5276C67.1714 12.0045 67.0122 12.6081 66.7225 13.2456C66.4329 13.883 66.0131 14.5537 65.4928 15.1646C64.4519 16.3866 63.0099 17.368 61.4031 17.368V17.388C63.0181 17.388 64.4652 16.4019 65.508 15.1776C66.0296 14.5653 66.4503 13.893 66.7407 13.2539C67.0311 12.6149 67.1914 12.0084 67.1914 11.5276H67.1714ZM65.4976 10.6067L67.1766 11.5363L67.1863 11.5188L65.5073 10.5892L65.4976 10.6067ZM62.0322 15.9334C63.3951 15.9334 64.239 14.8391 64.7548 13.6282C65.2708 12.4167 65.4602 11.0842 65.5124 10.599L65.4925 10.5969C65.4404 11.0814 65.2512 12.4116 64.7364 13.6204C64.2213 14.8298 63.3822 15.9134 62.0322 15.9134V15.9334ZM60.7046 15.4991C61.1705 15.7883 61.6131 15.9334 62.0322 15.9334V15.9134C61.6179 15.9134 61.1789 15.77 60.7152 15.4821L60.7046 15.4991ZM58.6835 13.8069C59.5931 14.6604 60.2669 15.2261 60.7046 15.4991L60.7152 15.4822C60.2793 15.2102 59.6068 14.6459 58.6971 13.7923L58.6835 13.8069ZM57.2304 12.5499C57.5059 12.7215 57.99 13.1415 58.6834 13.8068L58.6972 13.7924C58.0041 13.1274 57.5185 12.7059 57.241 12.5329L57.2304 12.5499ZM56.1297 12.1827C56.488 12.1827 56.8548 12.3061 57.2303 12.5498L57.2412 12.533C56.8633 12.2878 56.4928 12.1627 56.1297 12.1627V12.1827ZM54.0719 12.9823C54.8243 12.446 55.5075 12.1827 56.1297 12.1827V12.1627C55.5018 12.1627 54.8145 12.4284 54.0603 12.966L54.0719 12.9823ZM57.0111 7.80323C55.6525 9.74304 54.6663 11.4668 54.0568 12.9704L54.0753 12.9779C54.684 11.4762 55.6694 9.75379 57.0275 7.8147L57.0111 7.80323ZM60.3346 3.73821C59.424 4.53652 58.3134 5.98007 57.0112 7.80315L57.0275 7.81477C58.3299 5.99137 59.4392 4.54978 60.3478 3.75325L60.3346 3.73821ZM60.744 3.13665C60.744 3.21399 60.7111 3.30218 60.643 3.40252C60.575 3.50277 60.4725 3.61436 60.3346 3.73829L60.3479 3.75317C60.4865 3.62866 60.5903 3.51585 60.6596 3.41374C60.7288 3.31171 60.764 3.21958 60.764 3.13665H60.744ZM60.5498 2.71012C60.6776 2.86979 60.744 3.01182 60.744 3.13665H60.764C60.764 3.00501 60.6942 2.85853 60.5654 2.69763L60.5498 2.71012ZM59.4245 2.02014C59.9444 2.1921 60.3191 2.42367 60.5498 2.71015L60.5654 2.6976C60.3314 2.40705 59.9527 2.17379 59.4308 2.00115L59.4245 2.02014ZM58.0612 1.78021C58.5088 1.78021 58.9645 1.86014 59.4243 2.02009L59.4309 2.0012C58.9691 1.84057 58.5112 1.76021 58.0612 1.76021V1.78021ZM57.8648 1.78021H58.0612V1.76021H57.8648V1.78021ZM57.5685 2.20874L57.873 1.77597L57.8567 1.76446L57.5521 2.19723L57.5685 2.20874ZM57.8648 2.17295C57.7922 2.17295 57.6915 2.18101 57.5594 2.19302L57.5612 2.21294C57.6935 2.20091 57.7932 2.19295 57.8648 2.19295V2.17295ZM58.6503 2.34612C58.3886 2.22938 58.1268 2.17295 57.8648 2.17295V2.19295C58.1238 2.19295 58.3829 2.24872 58.6422 2.36439L58.6503 2.34612ZM59.0048 2.81207C59.0048 2.70783 58.9752 2.6175 58.9156 2.54C58.8562 2.46266 58.7675 2.39866 58.6503 2.34613L58.6421 2.36438C58.7574 2.41603 58.843 2.47826 58.8998 2.55219C58.9564 2.62596 58.9848 2.71194 58.9848 2.81207H59.0048ZM58.7626 3.44686C58.9235 3.21359 59.0048 3.00323 59.0048 2.81207H58.9848C58.9848 2.99758 58.9059 3.20396 58.7462 3.43551L58.7626 3.44686ZM57.4799 5.07439C58.173 4.22101 58.6021 3.67968 58.7626 3.44686L58.7462 3.43551C58.5862 3.66752 58.1577 4.20812 57.4644 5.06178L57.4799 5.07439ZM53.9864 10.1344C55.1164 8.31118 56.2782 6.53649 57.4799 5.07443L57.4644 5.06173C56.2618 6.52488 55.0995 8.30052 53.9694 10.1238L53.9864 10.1344ZM51.579 14.8649C52.0556 13.5354 52.8566 11.9573 53.9864 10.1344L53.9694 10.1238C52.8392 11.9474 52.0374 13.5269 51.5602 14.8581L51.579 14.8649ZM5.05905 7.91631L4.36581 7.54765L4.35642 7.56531L5.04965 7.93396L5.05905 7.91631ZM3.63346 12.2474C3.97796 10.9736 4.4547 9.53532 5.0637 7.92868L5.045 7.92159C4.43583 9.52867 3.95887 10.9675 3.61415 12.2422L3.63346 12.2474ZM3.00468 15.4345C3.00468 14.843 3.21267 13.7823 3.63345 12.2475L3.61416 12.2422C3.19344 13.7768 2.98468 14.8399 2.98468 15.4345H3.00468ZM3.26477 17.0587C3.09263 16.4542 3.00468 15.9102 3.00468 15.4345H2.98468C2.98468 15.9125 3.07305 16.4585 3.24553 17.0641L3.26477 17.0587ZM1.80274 17.3957L3.25733 17.0712L3.25297 17.0516L1.79838 17.3762L1.80274 17.3957ZM0.247813 11.788C0.247813 14.1496 0.765028 16.0193 1.79255 17.392L1.80856 17.38C0.784437 16.0118 0.267812 14.1468 0.267812 11.788H0.247813ZM1.44237 4.25571C0.644702 6.88921 0.247813 9.4267 0.247813 11.788H0.267812C0.267812 9.42892 0.664335 6.89338 1.46151 4.26151L1.44237 4.25571ZM1.68237 3.17267C1.68237 3.37533 1.60271 3.7346 1.44238 4.25567L1.4615 4.26155C1.62174 3.74076 1.70237 3.37875 1.70237 3.17267H1.68237ZM1.5516 2.74512C1.63896 2.88808 1.68237 3.03055 1.68237 3.17267H1.70237C1.70237 3.02628 1.65761 2.88024 1.56866 2.73469L1.5516 2.74512ZM1.63939 2.56304L1.55123 2.73535L1.56903 2.74446L1.65719 2.57215L1.63939 2.56304ZM3.62533 2.86226L1.64981 2.55771L1.64676 2.57748L3.62228 2.88202L3.62533 2.86226ZM2.46333 6.19683C2.86799 4.79453 3.25652 3.68512 3.63287 2.87636L3.61474 2.86792C3.23775 3.67804 2.84889 4.78858 2.44411 6.19128L2.46333 6.19683ZM1.55009 11.9243C1.55009 10.2304 1.85443 8.32396 2.46334 6.1968L2.44411 6.1913C1.83484 8.31972 1.53009 10.2281 1.53009 11.9243H1.55009ZM2.00633 15.1546C1.7023 14.3026 1.55009 13.2259 1.55009 11.9243H1.53009C1.53009 13.2273 1.68243 14.3064 1.98749 15.1614L2.00633 15.1546ZM2.08507 15.148H1.99691V15.168H2.08507V15.148ZM3.0973 11.0518C2.61638 12.6589 2.27967 14.0257 2.07522 15.1562L2.09491 15.1598C2.29918 14.0302 2.63568 12.6642 3.11646 11.0576L3.0973 11.0518ZM4.35594 7.55653C3.90696 8.5988 3.4901 9.76523 3.09732 11.0518L3.11645 11.0576C3.50907 9.7716 3.92569 8.60588 4.37431 7.56444L4.35594 7.55653ZM4.35404 7.56355L4.35805 7.56756L4.37219 7.55342L4.36819 7.54941L4.35404 7.56355ZM6.30325 5.34812L6.65187 6.25774L6.67055 6.25058L6.32193 5.34096L6.30325 5.34812ZM8.34925 4.31317C7.55088 4.56191 6.87258 4.90301 6.30651 5.3366L6.31867 5.35248C6.88261 4.92053 7.55872 4.58042 8.35519 4.33227L8.34925 4.31317ZM11.0851 3.85591C10.2023 3.85591 9.29169 4.00838 8.34914 4.31321L8.3553 4.33224C9.2961 4.02798 10.2047 3.87591 11.0851 3.87591V3.85591ZM13.562 4.39797C12.8551 4.03648 12.028 3.85591 11.0851 3.85591V3.87591C12.0255 3.87591 12.8493 4.05598 13.5529 4.41578L13.562 4.39797ZM12.7961 5.82738C12.8083 5.82738 12.8209 5.81962 12.833 5.80909C12.8456 5.79814 12.8596 5.78241 12.8747 5.7629C12.905 5.72382 12.9406 5.66829 12.9795 5.60205C13.0573 5.4695 13.1484 5.29292 13.2354 5.11655C13.3223 4.94013 13.4051 4.76374 13.4662 4.63146C13.4967 4.56531 13.5218 4.51019 13.5393 4.4716C13.548 4.45231 13.5549 4.43715 13.5595 4.42681C13.5618 4.42164 13.5636 4.41768 13.5648 4.415C13.5654 4.41367 13.5659 4.41265 13.5662 4.41197C13.5663 4.41163 13.5664 4.41138 13.5665 4.4112C13.5665 4.41112 13.5666 4.41105 13.5666 4.41101C13.5666 4.41099 13.5666 4.41097 13.5666 4.41096C13.5666 4.41095 13.5666 4.41095 13.5575 4.40687C13.5484 4.4028 13.5484 4.4028 13.5483 4.40281C13.5483 4.40282 13.5483 4.40284 13.5483 4.40286C13.5483 4.4029 13.5483 4.40297 13.5482 4.40305C13.5482 4.40322 13.5481 4.40348 13.5479 4.40382C13.5476 4.40449 13.5471 4.4055 13.5465 4.40683C13.5454 4.4095 13.5436 4.41345 13.5413 4.41862C13.5366 4.42894 13.5298 4.44408 13.5211 4.46336C13.5036 4.5019 13.4786 4.55698 13.448 4.62307C13.387 4.75526 13.3043 4.9315 13.2174 5.10771C13.1306 5.28396 13.0396 5.46001 12.9623 5.59193C12.9235 5.65793 12.8884 5.71259 12.8589 5.75065C12.8441 5.76971 12.8311 5.78428 12.8199 5.794C12.8083 5.80413 12.8005 5.80738 12.7961 5.80738V5.82738ZM10.3505 7.17116C11.332 6.27376 12.147 5.82738 12.7961 5.82738V5.80738C12.1389 5.80738 11.319 6.2586 10.337 7.1564L10.3505 7.17116ZM8.11779 11.5035C8.11779 9.98844 8.86122 8.54435 10.3505 7.17113L10.337 7.15643C8.845 8.5321 8.09778 9.98116 8.09778 11.5035H8.11779ZM11.2133 14.1422C10.1787 14.1422 9.40503 13.922 8.89016 13.4829C8.37559 13.0441 8.11779 12.3851 8.11779 11.5035H8.09778C8.09778 12.3891 8.3569 13.0544 8.87718 13.4981C9.39715 13.9416 10.1763 14.1622 11.2133 14.1622V14.1422ZM16.0957 13.7818C14.8067 14.0861 12.6601 14.1422 11.2133 14.1422V14.1622C12.6597 14.1622 14.8087 14.1062 16.1003 13.8013L16.0957 13.7818ZM15.5866 15.4975L16.1076 13.7945L16.0884 13.7887L15.5675 15.4917L15.5866 15.4975ZM13.0806 15.6769C13.8785 15.6769 14.7084 15.6208 15.5784 15.5045L15.5758 15.4847C14.7066 15.6008 13.8776 15.6569 13.0806 15.6569V15.6769ZM8.75591 14.8501C9.69988 15.4004 11.1406 15.6769 13.0806 15.6769V15.6569C11.1418 15.6569 9.70536 15.3804 8.76598 14.8328L8.75591 14.8501ZM7.05994 11.7159C7.05994 13.1536 7.62247 14.199 8.75597 14.8501L8.76593 14.8328C7.6394 14.1856 7.07994 13.1473 7.07994 11.7159H7.05994ZM9.08235 7.17285C7.7345 8.56482 7.05994 10.0779 7.05994 11.7159H7.07994C7.07994 10.084 7.75177 8.57574 9.09672 7.18676L9.08235 7.17285ZM11.1493 5.5878C10.5384 5.84902 9.8481 6.37503 9.08232 7.17288L9.09675 7.18673C9.86169 6.38975 10.5498 5.86589 11.1571 5.60618L11.1493 5.5878ZM11.3836 5.3806C11.3836 5.41268 11.3659 5.44625 11.3268 5.48136C11.2879 5.51644 11.2288 5.552 11.1491 5.58787L11.1573 5.60611C11.2379 5.56985 11.299 5.53328 11.3402 5.49623C11.3813 5.45921 11.4036 5.42066 11.4036 5.3806H11.3836ZM10.6764 5.13014C10.9144 5.13014 11.0923 5.15218 11.2104 5.19516C11.3284 5.23811 11.3836 5.30063 11.3836 5.3806H11.4036C11.4036 5.28828 11.3386 5.22056 11.2172 5.17636C11.0959 5.13218 10.9151 5.11014 10.6764 5.11014V5.13014ZM6.6663 6.25876C7.93912 5.50628 9.27575 5.13014 10.6764 5.13014V5.11014C9.27197 5.11014 7.93184 5.48735 6.65612 6.24154L6.6663 6.25876ZM6.67121 6.25416V6.25015H6.65121V6.25416H6.67121ZM39.2861 11.4957C39.3062 10.306 38.7614 9.46833 38.0183 8.98916C37.2756 8.51025 36.3348 8.38954 35.5625 8.6329L35.5685 8.65197C36.335 8.41046 37.2696 8.53019 38.0075 9.00597C38.7449 9.4815 39.2861 10.3128 39.2661 11.4953L39.2861 11.4957ZM36.7556 13.6934C36.7585 13.6934 36.7636 13.6927 36.7698 13.6916C36.7763 13.6905 36.7849 13.6888 36.7955 13.6865C36.8167 13.6819 36.8459 13.6751 36.882 13.6658C36.9543 13.6472 37.0541 13.6189 37.1723 13.5798C37.4087 13.5017 37.7188 13.3805 38.0283 13.2083C38.6467 12.8642 39.266 12.3147 39.2861 11.4958L39.2661 11.4953C39.2462 12.3032 38.6353 12.8477 38.0185 13.1908C37.7104 13.3622 37.4016 13.483 37.166 13.5608C37.0483 13.5998 36.9489 13.628 36.8771 13.6464C36.8412 13.6557 36.8122 13.6625 36.7913 13.6669C36.7809 13.6692 36.7725 13.6708 36.7663 13.6719C36.7632 13.6724 36.7607 13.6728 36.7588 13.6731C36.7579 13.6732 36.7571 13.6733 36.7566 13.6733C36.7563 13.6734 36.7561 13.6734 36.7559 13.6734C36.7558 13.6734 36.7558 13.6734 36.7557 13.6734C36.7556 13.6734 36.7557 13.6734 36.7556 13.6734V13.6934ZM35.7819 12.5614C35.7743 12.5679 35.7743 12.5679 35.7743 12.5679C35.7743 12.5679 35.7743 12.5679 35.7743 12.5679C35.7744 12.568 35.7744 12.568 35.7745 12.5681C35.7746 12.5682 35.7748 12.5684 35.775 12.5687C35.7754 12.5692 35.7761 12.57 35.777 12.5711C35.7788 12.5732 35.7815 12.5764 35.785 12.5805C35.792 12.5887 35.8023 12.6008 35.8153 12.6161C35.8414 12.6468 35.8788 12.6906 35.9236 12.7432C36.0134 12.8484 36.1332 12.9887 36.2537 13.1289C36.3741 13.2692 36.4953 13.4095 36.5875 13.5147C36.6336 13.5673 36.6726 13.6112 36.7007 13.6419C36.7147 13.6573 36.7261 13.6695 36.7343 13.6778C36.7384 13.682 36.7418 13.6853 36.7444 13.6877C36.7457 13.6888 36.747 13.6899 36.7482 13.6908C36.7488 13.6912 36.7496 13.6917 36.7505 13.6921C36.7511 13.6924 36.753 13.6934 36.7556 13.6934V13.6734C36.7579 13.6734 36.7595 13.6742 36.7595 13.6743C36.7598 13.6744 36.76 13.6746 36.7598 13.6744C36.7595 13.6742 36.7588 13.6737 36.7577 13.6727C36.7556 13.6708 36.7525 13.6679 36.7485 13.6638C36.7406 13.6557 36.7294 13.6438 36.7154 13.6285C36.6875 13.5979 36.6487 13.5541 36.6026 13.5015C36.5104 13.3964 36.3893 13.2561 36.2688 13.1159C36.1484 12.9757 36.0286 12.8354 35.9388 12.7302C35.894 12.6776 35.8567 12.6338 35.8305 12.6031C35.8175 12.5878 35.8072 12.5757 35.8002 12.5675C35.7967 12.5634 35.7941 12.5603 35.7923 12.5582C35.7914 12.5571 35.7907 12.5563 35.7902 12.5557C35.79 12.5555 35.7898 12.5553 35.7897 12.5551C35.7896 12.5551 35.7896 12.555 35.7896 12.555C35.7896 12.555 35.7895 12.555 35.7895 12.5549C35.7895 12.5549 35.7895 12.5549 35.7819 12.5614ZM37.7876 11.3523C37.8284 11.7405 37.7236 12.0084 37.5447 12.1927C37.3654 12.3774 37.1105 12.4792 36.8493 12.5326C36.5882 12.586 36.3217 12.5907 36.1204 12.5821C36.0197 12.5778 35.9355 12.5701 35.8764 12.5636C35.8468 12.5603 35.8236 12.5573 35.8077 12.5551C35.7998 12.554 35.7937 12.5531 35.7896 12.5525C35.7876 12.5522 35.7861 12.5519 35.785 12.5518C35.7845 12.5517 35.7841 12.5516 35.7839 12.5516C35.7837 12.5516 35.7837 12.5516 35.7836 12.5516C35.7836 12.5515 35.7835 12.5515 35.7835 12.5515C35.7835 12.5515 35.7835 12.5515 35.7819 12.5614C35.7803 12.5713 35.7803 12.5713 35.7803 12.5713C35.7804 12.5713 35.7804 12.5713 35.7804 12.5713C35.7805 12.5713 35.7806 12.5713 35.7807 12.5714C35.781 12.5714 35.7814 12.5715 35.7819 12.5715C35.783 12.5717 35.7846 12.572 35.7867 12.5723C35.7908 12.5729 35.797 12.5738 35.805 12.5749C35.821 12.5771 35.8444 12.5801 35.8741 12.5834C35.9336 12.5901 36.0184 12.5977 36.1195 12.6021C36.3218 12.6107 36.59 12.606 36.8533 12.5522C37.1165 12.4984 37.3758 12.3953 37.559 12.2066C37.7427 12.0175 37.8488 11.7434 37.8074 11.3502L37.7876 11.3523ZM35.5724 9.06875C36.1293 8.90169 36.6354 9.0774 37.0264 9.49229C37.4177 9.90754 37.6936 10.5625 37.7876 11.3524L37.8074 11.3501C37.7131 10.5572 37.436 9.89781 37.0409 9.47858C36.6455 9.05899 36.1318 8.88006 35.5667 9.0496L35.5724 9.06875ZM31.1765 10.3471L35.5723 9.06878L35.5667 9.04957L31.1709 10.3278L31.1765 10.3471ZM33.956 18.0117L31.1831 10.3341L31.1643 10.3408L33.9372 18.0185L33.956 18.0117ZM32.3839 18.0251H33.9466V18.0051H32.3839V18.0251ZM29.7538 10.8097L32.3745 18.0185L32.3933 18.0117L29.7726 10.8029L29.7538 10.8097ZM27.6043 12.0492L29.7681 10.815L29.7582 10.7976L27.5944 12.0318L27.6043 12.0492ZM27.4212 11.1648L27.5895 12.0424L27.6092 12.0386L27.4409 11.161L27.4212 11.1648ZM29.6156 10.3801L27.4277 11.1535L27.4344 11.1723L29.6223 10.399L29.6156 10.3801ZM28.748 8.01672L29.6095 10.393L29.6283 10.3861L28.7668 8.0099L28.748 8.01672ZM30.6127 6.58479C29.84 6.58479 29.3112 6.77343 29.0067 7.04717C28.7017 7.32131 28.6223 7.68024 28.748 8.01681L28.7668 8.00981C28.644 7.6812 28.721 7.33087 29.02 7.06204C29.3196 6.79282 29.8427 6.60479 30.6127 6.60479V6.58479ZM34.0742 6.90592C33.7402 6.78923 33.1509 6.70904 32.5079 6.65795C31.8644 6.60684 31.1659 6.58479 30.6127 6.58479V6.60479C31.1655 6.60479 31.8634 6.62682 32.5063 6.67789C33.1495 6.72898 33.7363 6.80907 34.0676 6.9248L34.0742 6.90592ZM33.062 5.56802C33.1035 5.60954 33.2594 5.79634 33.4523 6.04888C33.6451 6.30119 33.8743 6.61848 34.0624 6.92064L34.0793 6.91007C33.8908 6.60716 33.6612 6.28932 33.4682 6.03674C33.2754 5.78437 33.1188 5.5965 33.0761 5.55388L33.062 5.56802ZM33.3002 4.95616L33.0598 5.55723L33.0784 5.56466L33.3188 4.96359L33.3002 4.95616ZM36.4271 7.40423C36.4346 7.39766 36.4346 7.39765 36.4346 7.39763C36.4346 7.39761 36.4345 7.39759 36.4345 7.39755C36.4344 7.39747 36.4343 7.39736 36.4342 7.39721C36.4339 7.39691 36.4336 7.39647 36.433 7.39588C36.432 7.3947 36.4305 7.39294 36.4284 7.39062C36.4244 7.38599 36.4183 7.37912 36.4104 7.37015C36.3946 7.35223 36.3712 7.32595 36.3411 7.29251C36.281 7.22563 36.1939 7.13009 36.0864 7.01546C35.8714 6.7862 35.5743 6.48048 35.2463 6.17474C34.9183 5.86903 34.5591 5.5631 34.2198 5.33353C34.0501 5.21874 33.8853 5.12291 33.7316 5.05575C33.5781 4.98862 33.4351 4.94988 33.3095 4.94988V4.96988C33.4313 4.96988 33.5714 5.00752 33.7236 5.07407C33.8758 5.14059 34.0396 5.23572 34.2086 5.35009C34.5466 5.57883 34.905 5.88398 35.2326 6.18937C35.5602 6.49471 35.857 6.80009 36.0718 7.02914C36.1792 7.14366 36.2662 7.23909 36.3263 7.30589C36.3563 7.33928 36.3796 7.36552 36.3954 7.3834C36.4033 7.39234 36.4094 7.3992 36.4134 7.40381C36.4154 7.40612 36.417 7.40787 36.418 7.40904C36.4185 7.40962 36.4189 7.41006 36.4191 7.41036C36.4193 7.4105 36.4194 7.41061 36.4194 7.41069C36.4194 7.41072 36.4195 7.41075 36.4195 7.41077C36.4195 7.41079 36.4195 7.41079 36.4271 7.40423ZM34.4259 7.90281L36.4294 7.41394L36.4247 7.39451L34.4211 7.88338L34.4259 7.90281ZM31.0695 7.43827C31.4018 7.43827 32.1448 7.4613 32.8522 7.53089C33.2059 7.56568 33.5505 7.6121 33.8302 7.67302C33.9701 7.70349 34.0936 7.73754 34.1938 7.77548C34.2943 7.81351 34.3704 7.85512 34.4165 7.90025L34.4305 7.88595C34.3814 7.83791 34.3022 7.79512 34.2009 7.75678C34.0994 7.71836 33.9749 7.68406 33.8345 7.65348C33.5536 7.59232 33.2082 7.54581 32.8542 7.51099C32.146 7.44133 31.4024 7.41827 31.0695 7.41827V7.43827ZM30.3498 8.01055C30.3141 7.88654 30.3135 7.78954 30.3386 7.71373C30.3636 7.63813 30.4146 7.58243 30.4845 7.54159C30.6252 7.45945 30.8411 7.43827 31.0695 7.43827V7.41827C30.8412 7.41827 30.6203 7.43917 30.4744 7.52432C30.4011 7.56714 30.3464 7.62639 30.3196 7.70745C30.2928 7.78829 30.2942 7.88964 30.3306 8.01608L30.3498 8.01055ZM30.3502 8.03335V8.01331H30.3302V8.03335H30.3502ZM31.0148 9.91739L30.3497 8.03003L30.3308 8.03667L30.996 9.92403L31.0148 9.91739ZM35.5668 8.6328L31.0027 9.91108L31.0081 9.93034L35.5722 8.65206L35.5668 8.6328ZM35.5655 8.65243H35.5695V8.63243H35.5655V8.65243ZM111.921 8.61242C110.763 8.62445 109.299 8.96945 107.9 9.43338C106.501 9.89737 105.167 10.4806 104.271 10.9698L104.28 10.9874C105.175 10.4988 106.508 9.91603 107.906 9.45237C109.304 8.98866 110.767 8.64442 111.921 8.63242L111.921 8.61242ZM116.078 11.9162C116.068 11.1091 115.613 10.2781 114.868 9.65161C114.124 9.02502 113.089 8.60238 111.921 8.61242L111.921 8.63242C113.085 8.62242 114.114 9.04328 114.855 9.66691C115.597 10.2907 116.048 11.1166 116.058 11.9164L116.078 11.9162ZM111.526 16.907C112.205 16.7805 113.359 16.3319 114.335 15.5158C115.311 14.6996 116.111 13.5148 116.078 11.9161L116.058 11.9165C116.09 13.5074 115.295 14.6869 114.322 15.5005C113.349 16.3143 112.198 16.7614 111.522 16.8873L111.526 16.907ZM111.514 16.232V16.8971H111.534V16.232H111.514ZM114.62 12.087C114.88 13.1049 114.522 14.0443 113.89 14.7769C113.258 15.5096 112.353 16.0343 111.522 16.2222L111.527 16.2417C112.362 16.0529 113.271 15.5258 113.905 14.7899C114.54 14.0539 114.901 13.1079 114.64 12.0821L114.62 12.087ZM111.316 9.73839C111.826 9.73839 112.538 9.85833 113.18 10.212C113.822 10.5655 114.392 11.1524 114.62 12.0869L114.64 12.0822C114.41 11.1414 113.835 10.5502 113.19 10.1945C112.544 9.83887 111.828 9.71839 111.316 9.71839V9.73839ZM105.729 11.7742C107.503 10.7729 109.337 9.73839 111.316 9.73839V9.71839C109.331 9.71839 107.493 10.756 105.719 11.7568L105.729 11.7742ZM105.729 11.7743L105.729 11.7742L105.719 11.7568L105.719 11.757L105.729 11.7743ZM105.728 11.7745L105.729 11.7744L105.719 11.7569L105.719 11.757L105.728 11.7745ZM104.4 12.5062C104.84 12.2758 105.282 12.0262 105.728 11.7745L105.719 11.757C105.273 12.0088 104.83 12.2583 104.391 12.4885L104.4 12.5062ZM104.261 10.9794L104.386 12.4981L104.406 12.4965L104.281 10.9778L104.261 10.9794ZM104.275 10.9686H104.271V10.9886H104.275V10.9686ZM89.6538 13.9896C90.434 14.1896 91.1623 14.5217 91.8426 14.9859L91.8538 14.9694C91.1717 14.5039 90.4413 14.1708 89.6588 13.9702L89.6538 13.9896ZM89.6303 8.78774C89.9267 11.4194 89.7104 13.398 89.6464 13.9788L89.6662 13.981C89.7304 13.3996 89.9469 11.4193 89.6502 8.78551L89.6303 8.78774ZM92.5814 7.93599C91.7731 8.29616 90.68 8.57248 89.6383 8.77681L89.6422 8.79644C90.6842 8.59204 91.7791 8.31538 92.5896 7.95426L92.5814 7.93599ZM91.9471 6.38608L92.5762 7.94886L92.5948 7.94139L91.9657 6.37861L91.9471 6.38608ZM89.4628 7.66621C90.3894 7.39343 91.3244 6.92804 91.9628 6.38999L91.9499 6.3747C91.3141 6.91056 90.3818 7.37483 89.4571 7.64702L89.4628 7.66621ZM89.136 5.29512C89.2322 5.4012 89.331 5.61631 89.3955 5.99334C89.4599 6.37004 89.49 6.9072 89.45 7.65608L89.4699 7.65715C89.51 6.90736 89.48 6.36861 89.4152 5.98996C89.3505 5.61165 89.2509 5.39198 89.1508 5.28168L89.136 5.29512ZM87.8379 6.02244L89.1482 5.29715L89.1385 5.27965L87.8282 6.00494L87.8379 6.02244ZM88.4281 7.9246C88.384 7.0263 88.1915 6.3862 87.8404 6.0069L87.8257 6.02048C88.1719 6.39452 88.3641 7.02869 88.4081 7.92558L88.4281 7.9246ZM86.9875 8.08736C87.4931 8.08736 87.9707 8.0352 88.4203 7.93485L88.4159 7.91533C87.9679 8.01534 87.4917 8.06736 86.9875 8.06736V8.08736ZM85.1102 6.8632C85.1102 7.27094 85.2669 7.57781 85.5811 7.7822C85.8945 7.98612 86.3637 8.08736 86.9875 8.08736V8.06736C86.3652 8.06736 85.9007 7.96625 85.592 7.76544C85.2841 7.56512 85.1302 7.26491 85.1302 6.8632H85.1102ZM85.8748 5.46534C85.3649 5.93114 85.1102 6.39444 85.1102 6.8632H85.1302C85.1302 6.40231 85.3805 5.94397 85.8883 5.48011L85.8748 5.46534ZM89.9426 3.77188C89.3183 3.65709 88.4984 3.88767 87.7372 4.24249C86.9755 4.59748 86.2703 5.07792 85.8746 5.46558L85.8886 5.47987C86.2823 5.09415 86.9855 4.61489 87.7456 4.26062C88.5061 3.90617 89.3211 3.67794 89.939 3.79155L89.9426 3.77188ZM90.0831 2.28204L89.9309 3.7807L89.9508 3.78273L90.103 2.28406L90.0831 2.28204ZM88.8549 2.20489C89.2751 2.20489 89.6874 2.23691 90.0917 2.29295L90.0944 2.27314C89.6893 2.21699 89.2761 2.18489 88.8549 2.18489V2.20489ZM84.0007 3.85342C85.2849 2.75325 86.9014 2.20489 88.8549 2.20489V2.18489C86.8974 2.18489 85.2761 2.73448 83.9877 3.83824L84.0007 3.85342ZM84.4592 4.48923L84.0024 3.84007L83.986 3.85158L84.4428 4.50074L84.4592 4.48923ZM87.4243 3.39905C86.364 3.39905 85.3721 3.7606 84.4449 4.48711L84.4572 4.50286C85.3813 3.77879 86.3689 3.41905 87.4243 3.41905V3.39905ZM88.7883 3.53542C88.2432 3.44723 87.7857 3.39905 87.4243 3.39905V3.41905C87.7842 3.41905 88.2404 3.46704 88.7851 3.55517L88.7883 3.53542ZM85.4351 5.19597C86.0751 4.67395 86.9115 4.26367 87.5894 3.9838C87.9283 3.8439 88.2273 3.73666 88.4422 3.66441C88.5496 3.62828 88.636 3.60089 88.6957 3.58255C88.7255 3.57338 88.7487 3.56647 88.7646 3.56186C88.7725 3.55955 88.7786 3.55782 88.7827 3.55667C88.7848 3.5561 88.7863 3.55568 88.7874 3.55541C88.7879 3.55527 88.7883 3.55519 88.7884 3.55514C88.7886 3.55512 88.7885 3.55512 88.7885 3.55514C88.7884 3.55515 88.7882 3.55518 88.7881 3.5552C88.7879 3.55522 88.7872 3.55528 88.7867 3.55529V3.53529C88.7862 3.53531 88.7855 3.53537 88.7852 3.53541C88.7851 3.53543 88.7848 3.53548 88.7847 3.5355C88.7844 3.53556 88.7841 3.53562 88.7839 3.53566C88.7835 3.53577 88.7829 3.5359 88.7824 3.53605C88.7812 3.53636 88.7795 3.53682 88.7774 3.5374C88.7731 3.53858 88.767 3.54033 88.759 3.54265C88.743 3.5473 88.7198 3.55424 88.6898 3.56343C88.6299 3.58183 88.5434 3.60926 88.4358 3.64545C88.2206 3.71782 87.9211 3.82521 87.5818 3.96532C86.9033 4.24545 86.0647 4.65662 85.4224 5.18047L85.4351 5.19597ZM84.2887 7.18377C84.2887 6.4063 84.6712 5.74389 85.4346 5.19634L85.4229 5.18009C84.6556 5.7305 84.2687 6.39846 84.2687 7.18377H84.2887ZM86.9034 9.01705C86.0287 9.01705 85.375 8.86387 84.9401 8.55855C84.506 8.25368 84.2887 7.79618 84.2887 7.18377H84.2687C84.2687 7.80155 84.4883 8.26569 84.9286 8.57492C85.3684 8.88369 86.027 9.03705 86.9034 9.03705V9.01705ZM88.4653 8.95298C87.9607 8.99703 87.4401 9.01705 86.9034 9.01705V9.03705C87.4406 9.03705 87.9618 9.01701 88.467 8.9729L88.4653 8.95298ZM88.3479 13.7404C88.4201 13.0025 88.4602 10.8742 88.4762 8.96302L88.4562 8.96285C88.4401 10.8745 88.4001 13.0017 88.328 13.7385L88.3479 13.7404ZM87.1679 13.6853C87.5402 13.6853 87.9325 13.7053 88.3369 13.7494L88.339 13.7295C87.9339 13.6854 87.5409 13.6653 87.1679 13.6653V13.6853ZM85.1318 14.0092C85.6954 13.7934 86.3713 13.6853 87.1679 13.6853V13.6653C86.3696 13.6653 85.6911 13.7736 85.1247 13.9906L85.1318 14.0092ZM83.7277 15.6909C83.7277 15.3024 83.8442 14.9691 84.0775 14.6895C84.311 14.4098 84.6619 14.1832 85.1317 14.0093L85.1248 13.9905C84.6529 14.1652 84.2985 14.3935 84.0622 14.6767C83.8256 14.9601 83.7077 15.298 83.7077 15.6909H83.7277ZM86.0619 17.1796C85.2813 17.1796 84.6975 17.0544 84.3092 16.806C83.9216 16.558 83.7277 16.1867 83.7277 15.6909H83.7077C83.7077 16.1929 83.9046 16.5709 84.2984 16.8228C84.6914 17.0743 85.2798 17.1996 86.0619 17.1996V17.1796ZM88.5276 16.3567C87.9248 16.9036 87.102 17.1796 86.0619 17.1796V17.1996C87.1055 17.1996 87.9336 16.9226 88.541 16.3715L88.5276 16.3567ZM89.3946 15.0139C89.1465 15.6061 88.8587 16.0535 88.5275 16.3567L88.541 16.3715C88.8751 16.0656 89.1643 15.6154 89.4131 15.0216L89.3946 15.0139ZM91.9728 17.5287C91.2628 16.4417 90.4082 15.603 89.409 15.0091L89.3987 15.0263C90.3951 15.6185 91.2475 16.4549 91.956 17.5397L91.9728 17.5287ZM93.1515 16.357L91.9574 17.5271L91.9714 17.5413L93.1655 16.3713L93.1515 16.357ZM91.8505 14.9819C92.4586 15.4019 92.8901 15.8656 93.1496 16.3687L93.1674 16.3595C92.906 15.8528 92.472 15.3868 91.8619 14.9654L91.8505 14.9819ZM91.8527 14.9866L91.8607 14.9826L91.8517 14.9647L91.8437 14.9687L91.8527 14.9866ZM85.7253 16.2659C86.4525 16.2659 87.0241 16.069 87.4471 15.6782L87.4336 15.6635C87.0151 16.0501 86.4487 16.2459 85.7253 16.2459V16.2659ZM84.6093 15.5627C84.6093 15.7964 84.7062 15.973 84.895 16.0906C85.0832 16.2077 85.3619 16.2659 85.7253 16.2659V16.2459C85.3634 16.2459 85.0891 16.1879 84.9056 16.0736C84.7228 15.9598 84.6293 15.7898 84.6293 15.5627H84.6093ZM85.2879 14.7083C84.8377 14.9414 84.6093 15.2246 84.6093 15.5627H84.6293C84.6293 15.2356 84.8497 14.9578 85.2971 14.7261L85.2879 14.7083ZM87.1158 14.3586C86.3496 14.3586 85.7387 14.4749 85.2879 14.7083L85.2971 14.7261C85.744 14.4947 86.3512 14.3786 87.1158 14.3786V14.3586ZM88.1594 14.4669C87.7663 14.3947 87.4211 14.3586 87.1158 14.3586V14.3786C87.4196 14.3786 87.7635 14.4145 88.1558 14.4866L88.1594 14.4669ZM87.447 15.6784C87.7253 15.4324 87.9624 15.0299 88.167 14.4802L88.1483 14.4733C87.9441 15.0216 87.7084 15.4205 87.4337 15.6634L87.447 15.6784ZM80.7711 2.98921C79.988 3.75616 79.4743 4.75182 79.2255 5.96764L79.2451 5.97165C79.4932 4.75915 80.0053 3.76727 80.7851 3.0035L80.7711 2.98921ZM80.7891 2.99329L80.7851 2.98928L80.771 3.00342L80.775 3.00743L80.7891 2.99329ZM82.0565 2.16565C81.5626 2.37046 81.1367 2.6436 80.7751 2.99317L80.789 3.00755C81.1487 2.65988 81.5723 2.38806 82.0642 2.18413L82.0565 2.16565ZM82.3499 2.75561L82.0694 2.17057L82.0513 2.17922L82.3318 2.76426L82.3499 2.75561ZM81.3515 3.48263C81.5543 3.16841 81.8848 2.92914 82.3441 2.76938L82.3376 2.75049C81.8752 2.9113 81.5405 3.15288 81.3347 3.47179L81.3515 3.48263ZM80.3753 9.33564C80.3753 7.85932 80.4565 6.63373 80.6191 5.65823C80.7818 4.68255 81.0259 3.95794 81.3513 3.48286L81.3348 3.47156C81.007 3.95018 80.7623 4.67816 80.5994 5.65494C80.4365 6.63192 80.3553 7.8587 80.3553 9.33564H80.3753ZM80.3747 9.6937C80.375 9.57677 80.3753 9.45777 80.3753 9.33564H80.3553C80.3553 9.45774 80.355 9.57671 80.3547 9.69365L80.3747 9.6937ZM81.2807 16.6264C80.3671 12.6162 80.3704 11.3641 80.3747 9.6937L80.3547 9.69365C80.3504 11.3655 80.3472 12.6191 81.2612 16.6308L81.2807 16.6264ZM79.3478 17.5513L81.2752 16.6377L81.2667 16.6196L79.3392 17.5332L79.3478 17.5513ZM78.9448 10.7461C78.9448 13.0187 79.1733 15.8201 79.3335 17.5432L79.3535 17.5413C79.1932 15.8183 78.9648 13.0177 78.9648 10.7461H78.9448ZM79.2255 5.96762C79.037 6.87836 78.9448 8.47413 78.9448 10.7461H78.9648C78.9648 8.47408 79.057 6.88018 79.2451 5.97167L79.2255 5.96762Z" fill="white"/>
</svg>
