<svg width="182" height="24" viewBox="0 0 182 24" fill="none" xmlns="http://www.w3.org/2000/svg">
<path fill-rule="evenodd" clip-rule="evenodd" d="M13.5213 9.71429H17.871V9.71669C20.8402 9.71669 23.25 12.1056 23.25 15.0492C23.25 17.9928 20.8427 20.3818 17.871 20.3818H14.989C14.8848 20.3818 14.7977 20.4658 14.7977 20.5714V22.8571C14.7977 23.4886 14.2818 24 13.6448 24C13.0079 24 12.492 23.4886 12.492 22.8571V18.8571C12.492 18.437 12.8359 18.096 13.2598 18.096H17.871C19.5688 18.096 20.9444 16.7323 20.9444 15.0492C20.9444 13.3661 19.5688 12.0024 17.871 12.0024H14.3738C14.1244 12.0024 13.8919 12.1249 13.7369 12.3193C12.3298 14.0984 10.1428 15.2413 7.68703 15.2413C3.44148 15.2413 0 11.8295 0 7.62065C0 3.41176 3.44148 0 7.68703 0C10.5279 0 13.0103 1.52941 14.3399 3.80312C14.7613 4.52101 14.168 5.33253 13.3324 5.33253C12.8529 5.33253 12.4291 5.05162 12.1627 4.65786C11.1988 3.22689 9.5543 2.28571 7.68703 2.28571C4.71781 2.28571 2.30805 4.67707 2.30805 7.62065C2.30805 10.5642 4.71539 12.9532 7.68703 12.9532C9.48891 12.9532 11.0849 11.94 12.0609 10.5474C12.4 10.0624 12.928 9.71429 13.5213 9.71429ZM43.122 9.60701C43.1971 9.81684 43.0906 9.95151 42.8652 9.95151L41.7533 9.96717C41.5873 9.96717 41.484 9.90767 41.3932 9.75734C40.701 8.58602 39.6049 7.93773 38.3114 7.93773C36.3885 7.93773 34.8852 9.33453 34.8852 11.981C34.8852 14.6274 36.3885 16.2497 38.5526 16.2497C40.0559 16.2497 40.9265 15.498 41.4527 14.3862C41.5278 14.2359 41.6343 14.1607 41.8128 14.1607L42.9247 14.1764C43.1501 14.1764 43.2566 14.3111 43.1815 14.5084C42.624 16.1181 41.0612 17.8469 38.3866 17.8469C35.214 17.8469 33.0938 15.4855 33.0938 12.1313C33.0938 8.77706 35.4082 6.35927 38.4148 6.35927C40.5946 6.35927 42.3985 7.5619 43.122 9.60701ZM59.4765 11.9214C59.4765 15.3352 57.1464 17.8438 54.0803 17.8438C51.0142 17.8438 48.8188 15.4824 48.8188 12.1C48.8188 8.71756 51.1646 6.35927 54.2463 6.35927C57.3281 6.35927 59.4797 8.59855 59.4797 11.9214H59.4765ZM50.6071 11.981C50.6071 14.6556 52.1417 16.2497 54.1993 16.2497C56.257 16.2497 57.7008 14.7464 57.7008 12.0843C57.7008 9.42223 56.1536 7.93459 54.1085 7.93459C52.0634 7.93459 50.604 9.3314 50.604 11.9778L50.6071 11.981ZM74.2401 17.6058C74.4343 17.6058 74.5408 17.4993 74.5408 17.3051L74.5376 17.302L74.4781 6.89795C74.4781 6.70377 74.3716 6.59729 74.1775 6.59729H73.0343C72.8402 6.59729 72.7337 6.70377 72.7337 6.89795L72.6898 15.1379L67.9106 6.81026C67.8198 6.65993 67.7164 6.60042 67.5505 6.60042H65.7622C65.568 6.60042 65.4615 6.7069 65.4615 6.90108L65.402 17.3051C65.402 17.4993 65.5085 17.6058 65.7027 17.6058H66.9648C67.159 17.6058 67.2655 17.4993 67.2655 17.3051L67.2216 8.72069L72.1668 17.3959C72.2576 17.5463 72.361 17.6058 72.527 17.6058H74.2401ZM89.962 17.3051C89.962 17.4993 89.8556 17.6058 89.6614 17.6058H87.9483C87.7823 17.6058 87.6789 17.5463 87.5881 17.3959L82.6429 8.72069L82.6867 17.3051C82.6867 17.4993 82.5802 17.6058 82.3861 17.6058H81.1239C80.9298 17.6058 80.8233 17.4993 80.8233 17.3051L80.8828 6.90108C80.8828 6.7069 80.9893 6.60042 81.1834 6.60042H82.9717C83.1377 6.60042 83.2411 6.65993 83.3319 6.81026L88.1142 15.1379L88.1581 6.89795C88.1581 6.70377 88.2646 6.59729 88.4587 6.59729H89.6019C89.7961 6.59729 89.9025 6.70377 89.9025 6.89795L89.962 17.302V17.3051ZM98.1143 11.0665H102.712C102.906 11.0665 103.012 11.1729 103.012 11.3671V12.3756C103.012 12.5697 102.906 12.6762 102.712 12.6762H98.1268L98.1424 15.9991H103.344C103.539 15.9991 103.645 16.1056 103.645 16.2998V17.3082C103.645 17.5024 103.539 17.6089 103.344 17.6089H96.5483C96.3542 17.6089 96.2477 17.5024 96.2477 17.3082L96.3072 6.90421C96.3072 6.71004 96.4137 6.60355 96.6078 6.60355H103.344C103.539 6.60355 103.645 6.71004 103.645 6.90421V7.91267C103.645 8.10685 103.539 8.21333 103.344 8.21333H98.0986L98.1143 11.0665ZM119.204 9.60701C119.279 9.81684 119.173 9.95151 118.947 9.95151L117.836 9.96717C117.67 9.96717 117.566 9.90767 117.475 9.75734C116.783 8.58602 115.687 7.93773 114.394 7.93773C112.471 7.93773 110.964 9.33453 110.964 11.981C110.964 14.6274 112.468 16.2497 114.632 16.2497C116.135 16.2497 117.006 15.498 117.535 14.3862C117.61 14.2359 117.717 14.1607 117.895 14.1607L119.007 14.1764C119.232 14.1764 119.339 14.3111 119.264 14.5084C118.706 16.1181 117.143 17.8469 114.469 17.8469C111.296 17.8469 109.176 15.4855 109.176 12.1344C109.176 8.78333 111.49 6.35927 114.497 6.35927C116.677 6.35927 118.481 7.5619 119.204 9.60701ZM132.853 8.20707C133.047 8.20707 133.154 8.10058 133.154 7.90641V6.90108C133.154 6.7069 133.047 6.60042 132.853 6.60042H124.795C124.6 6.60042 124.494 6.7069 124.494 6.90108V7.90641C124.494 8.10058 124.6 8.20707 124.795 8.20707H127.936L127.876 17.302C127.876 17.4962 127.983 17.6026 128.177 17.6026H129.47C129.665 17.6026 129.771 17.4962 129.771 17.302L129.712 8.20707H132.853ZM150.529 6.60042C152.844 6.60042 154.394 7.99723 154.394 10.0267C154.394 12.0561 152.847 13.6502 150.529 13.6502H147.688L147.72 17.3051C147.72 17.4993 147.613 17.6058 147.419 17.6058H146.11C145.916 17.6058 145.809 17.4993 145.809 17.3051L145.869 6.90108C145.869 6.7069 145.975 6.60042 146.169 6.60042H150.529ZM150.394 12.0874C151.854 12.0874 152.621 11.3796 152.621 10.2083C152.621 8.94618 151.704 8.16322 150.394 8.16322H147.657L147.688 12.0874H150.394ZM162.183 11.0665H166.78C166.974 11.0665 167.081 11.1729 167.081 11.3671V12.3756C167.081 12.5697 166.974 12.6762 166.78 12.6762H162.195L162.211 15.9991H167.413C167.607 15.9991 167.714 16.1056 167.714 16.2998V17.3082C167.714 17.5024 167.607 17.6089 167.413 17.6089H160.617C160.423 17.6089 160.316 17.5024 160.316 17.3082L160.376 6.90421C160.376 6.71004 160.482 6.60355 160.676 6.60355H167.413C167.607 6.60355 167.714 6.71004 167.714 6.90421V7.91267C167.714 8.10685 167.607 8.21333 167.413 8.21333H162.167L162.183 11.0665ZM181.5 7.90641C181.5 8.10058 181.394 8.20707 181.199 8.20707H178.058L178.118 17.302C178.118 17.4962 178.011 17.6026 177.817 17.6026H176.523C176.329 17.6026 176.223 17.4962 176.223 17.302L176.282 8.20707H173.141C172.947 8.20707 172.84 8.10058 172.84 7.90641V6.90108C172.84 6.7069 172.947 6.60042 173.141 6.60042H181.199C181.394 6.60042 181.5 6.7069 181.5 6.90108V7.90641Z" fill="#0C1A2A"/>
</svg>
