<svg width="490" height="64" viewBox="0 0 490 64" fill="none" xmlns="http://www.w3.org/2000/svg">
<path d="M36.0569 25.9048H47.656V25.9112C55.574 25.9112 62 32.2817 62 40.1313C62 47.9808 55.5804 54.3513 47.656 54.3513H39.9706C39.6929 54.3513 39.4604 54.5754 39.4604 54.8571V60.9524C39.4604 62.6363 38.0848 64 36.3862 64C34.6877 64 33.3121 62.6363 33.3121 60.9524V50.2857C33.3121 49.1653 34.2292 48.2561 35.3594 48.2561H47.656C52.1833 48.2561 55.8517 44.6194 55.8517 40.1313C55.8517 35.6431 52.1833 32.0064 47.656 32.0064H38.3302C37.665 32.0064 37.045 32.3329 36.6317 32.8515C32.8794 37.5958 27.0475 40.6435 20.4987 40.6435C9.17729 40.6435 0 31.5454 0 20.3217C0 9.09804 9.17729 0 20.4987 0C28.0744 0 34.6942 4.07843 38.2398 10.1417C39.3635 12.056 37.7812 14.2201 35.5531 14.2201C34.2744 14.2201 33.1442 13.471 32.4338 12.421C29.8633 8.60504 25.4781 6.09524 20.4987 6.09524C12.5808 6.09524 6.15479 12.4722 6.15479 20.3217C6.15479 28.1713 12.5744 34.5418 20.4987 34.5418C25.3037 34.5418 29.5598 31.8399 32.1625 28.1265C33.0667 26.8331 34.4746 25.9048 36.0569 25.9048Z" fill="white"/>
<path d="M120.742 25.6185C120.942 26.1781 120.658 26.5372 120.057 26.5372L117.092 26.579C116.65 26.579 116.374 26.4203 116.132 26.0194C114.286 22.8959 111.363 21.1671 107.914 21.1671C102.786 21.1671 98.7771 24.8919 98.7771 31.949C98.7771 39.0062 102.786 43.3323 108.557 43.3323C112.566 43.3323 114.887 41.3279 116.29 38.3631C116.491 37.9622 116.775 37.7618 117.251 37.7618L120.216 37.8035C120.817 37.8035 121.101 38.1627 120.901 38.6888C119.414 42.9815 115.247 47.5916 108.114 47.5916C99.654 47.5916 94 41.2945 94 32.3499C94 23.4053 100.172 16.9579 108.189 16.9579C114.002 16.9579 118.813 20.1649 120.742 25.6185Z" fill="white"/>
<path fill-rule="evenodd" clip-rule="evenodd" d="M164.354 31.7904C164.354 40.8936 158.14 47.5833 149.964 47.5833C141.788 47.5833 135.934 41.2862 135.934 32.2664C135.934 23.2467 142.189 16.9579 150.407 16.9579C158.625 16.9579 164.362 22.9293 164.362 31.7904H164.354ZM140.702 31.949C140.702 39.0813 144.795 43.3323 150.282 43.3323C155.769 43.3323 159.619 39.3235 159.619 32.2247C159.619 25.1258 155.493 21.1588 150.039 21.1588C144.586 21.1588 140.694 24.8836 140.694 31.9407L140.702 31.949Z" fill="white"/>
<path d="M203.724 46.9486C204.241 46.9486 204.525 46.6646 204.525 46.1468L204.517 46.1385L204.358 18.3944C204.358 17.8766 204.074 17.5926 203.557 17.5926H200.508C199.99 17.5926 199.706 17.8766 199.706 18.3944L199.59 40.3675L186.845 18.1605C186.603 17.7596 186.327 17.601 185.885 17.601H181.116C180.598 17.601 180.314 17.8849 180.314 18.4027L180.155 46.1468C180.155 46.6646 180.439 46.9486 180.957 46.9486H184.323C184.841 46.9486 185.125 46.6646 185.125 46.1468L185.008 23.255L198.195 46.389C198.437 46.7899 198.713 46.9486 199.155 46.9486H203.724Z" fill="white"/>
<path d="M245.649 46.1468C245.649 46.6646 245.365 46.9486 244.847 46.9486H240.279C239.836 46.9486 239.56 46.7899 239.318 46.389L226.131 23.255L226.248 46.1468C226.248 46.6646 225.964 46.9486 225.446 46.9486H222.08C221.563 46.9486 221.279 46.6646 221.279 46.1468L221.437 18.4027C221.437 17.8849 221.721 17.601 222.239 17.601H227.008C227.451 17.601 227.726 17.7596 227.968 18.1605L240.721 40.3675L240.838 18.3944C240.838 17.8766 241.122 17.5926 241.64 17.5926H244.688C245.206 17.5926 245.49 17.8766 245.49 18.3944L245.649 46.1385V46.1468Z" fill="white"/>
<path d="M267.388 29.5104H279.648C280.166 29.5104 280.45 29.7943 280.45 30.3121V33.0014C280.45 33.5192 280.166 33.8031 279.648 33.8031H267.421L267.463 42.6642H281.335C281.853 42.6642 282.137 42.9481 282.137 43.4659V46.1552C282.137 46.673 281.853 46.9569 281.335 46.9569H263.212C262.694 46.9569 262.41 46.673 262.41 46.1552L262.569 18.4111C262.569 17.8933 262.853 17.6093 263.371 17.6093H281.335C281.853 17.6093 282.137 17.8933 282.137 18.4111V21.1003C282.137 21.6181 281.853 21.902 281.335 21.902H267.346L267.388 29.5104Z" fill="white"/>
<path d="M323.628 25.6185C323.828 26.1781 323.544 26.5372 322.943 26.5372L319.978 26.579C319.536 26.579 319.26 26.4203 319.018 26.0194C317.172 22.8959 314.249 21.1671 310.8 21.1671C305.672 21.1671 301.655 24.8919 301.655 31.949C301.655 39.0062 305.664 43.3323 311.434 43.3323C315.443 43.3323 317.765 41.3279 319.176 38.3631C319.377 37.9622 319.661 37.7618 320.137 37.7618L323.102 37.8035C323.703 37.8035 323.987 38.1627 323.787 38.6888C322.3 42.9815 318.132 47.5916 311 47.5916C302.54 47.5916 296.886 41.2945 296.886 32.3583C296.886 23.422 303.058 16.9579 311.075 16.9579C316.888 16.9579 321.699 20.1649 323.628 25.6185Z" fill="white"/>
<path d="M360.024 21.8853C360.542 21.8853 360.826 21.6014 360.826 21.0836V18.4027C360.826 17.8849 360.542 17.601 360.024 17.601H338.536C338.018 17.601 337.734 17.8849 337.734 18.4027V21.0836C337.734 21.6014 338.018 21.8853 338.536 21.8853H346.912L346.754 46.1385C346.754 46.6563 347.038 46.9402 347.555 46.9402H351.005C351.522 46.9402 351.806 46.6563 351.806 46.1385L351.648 21.8853H360.024Z" fill="white"/>
<path fill-rule="evenodd" clip-rule="evenodd" d="M407.161 17.601C413.333 17.601 417.467 21.3258 417.467 26.7376C417.467 32.1495 413.341 36.4005 407.161 36.4005H399.586L399.669 46.1468C399.669 46.6646 399.385 46.9486 398.868 46.9486H395.377C394.859 46.9486 394.575 46.6646 394.575 46.1468L394.734 18.4027C394.734 17.8849 395.018 17.601 395.535 17.601H407.161ZM406.802 32.233C410.694 32.233 412.74 30.3455 412.74 27.222C412.74 23.8563 410.293 21.7684 406.802 21.7684H399.502L399.586 32.233H406.802Z" fill="white"/>
<path d="M438.237 29.5104H450.497C451.015 29.5104 451.299 29.7943 451.299 30.3121V33.0014C451.299 33.5192 451.015 33.8031 450.497 33.8031H438.271L438.312 42.6642H452.184C452.702 42.6642 452.986 42.9481 452.986 43.4659V46.1552C452.986 46.673 452.702 46.9569 452.184 46.9569H434.061C433.544 46.9569 433.26 46.673 433.26 46.1552L433.418 18.4111C433.418 17.8933 433.702 17.6093 434.22 17.6093H452.184C452.702 17.6093 452.986 17.8933 452.986 18.4111V21.1003C452.986 21.6181 452.702 21.902 452.184 21.902H438.195L438.237 29.5104Z" fill="white"/>
<path d="M489.75 21.0836C489.75 21.6014 489.466 21.8853 488.948 21.8853H480.572L480.73 46.1385C480.73 46.6563 480.446 46.9402 479.929 46.9402H476.479C475.962 46.9402 475.678 46.6563 475.678 46.1385L475.836 21.8853H467.46C466.942 21.8853 466.658 21.6014 466.658 21.0836V18.4027C466.658 17.8849 466.942 17.601 467.46 17.601H488.948C489.466 17.601 489.75 17.8849 489.75 18.4027V21.0836Z" fill="white"/>
</svg>
