<svg width="64" height="64" viewBox="0 0 64 64" fill="none" xmlns="http://www.w3.org/2000/svg">
<g clip-path="url(#clip0_265_2715)">
<path fill-rule="evenodd" clip-rule="evenodd" d="M33.8759 55.2282L53.6919 35.6024C53.7523 35.5527 53.8111 35.4998 53.868 35.4439C55.4389 33.901 56.6745 32.0504 57.4973 30.0079C58.3201 27.9655 58.7124 25.7752 58.6498 23.5742C58.5872 21.3732 58.071 19.2087 57.1334 17.2164C56.1958 15.2241 54.8571 13.4467 53.201 11.9955C51.5449 10.5443 49.6071 9.45061 47.5089 8.78279C45.4107 8.11497 43.1972 7.88743 41.007 8.1144C38.8168 8.34138 36.697 9.01798 34.7804 10.1019C33.7865 10.6639 32.8583 11.3292 32.0104 12.085C31.1616 11.32 30.2311 10.6461 29.2337 10.0763C27.3157 8.98081 25.1916 8.29429 22.9953 8.05999C20.7989 7.8257 18.5778 8.0487 16.4719 8.71497C14.3659 9.38123 12.4208 10.4763 10.7588 11.9313C9.09692 13.3862 7.75425 15.1696 6.81539 17.1689C5.87653 19.1683 5.36181 21.3404 5.30364 23.5484C5.24548 25.7565 5.64513 27.9527 6.47744 29.9987C7.30819 32.0409 8.55203 33.8893 10.1309 35.428L30.1229 55.2282C31.1622 56.2575 32.8366 56.2575 33.8759 55.2282ZM18.0806 13.7999C19.4846 13.3557 20.9653 13.207 22.4295 13.3632C23.8938 13.5194 25.3098 13.9771 26.5885 14.7075C27.2003 15.0569 27.7743 15.4652 28.3029 15.9254L21.3323 22.896C20.3324 23.8961 19.7708 25.2525 19.7708 26.6667C19.7708 28.0809 20.3327 29.4375 21.3326 30.4376L22.7806 31.8856C25.662 34.767 30.3371 34.767 33.2185 31.8856L35.8851 29.219C36.9763 28.1278 38.4563 27.5147 39.9995 27.5147C41.5427 27.5147 43.0227 28.1278 44.1139 29.219L48.3157 33.4207L45.4065 36.302L41.8855 32.781C40.8441 31.7397 39.1557 31.7397 38.1143 32.781C37.0729 33.8224 37.0729 35.5109 38.1143 36.5523L41.617 40.055L38.7076 42.9365L35.2189 39.4477C34.1775 38.4063 32.489 38.4063 31.4476 39.4477C30.4062 40.4891 30.4062 42.1776 31.4476 43.219L34.9182 46.6895L31.9994 49.5803L13.8759 31.6308L13.8592 31.6143C12.8038 30.5874 11.9725 29.353 11.4177 27.989C10.8628 26.625 10.5964 25.1609 10.6351 23.6889C10.6739 22.2168 11.017 20.7688 11.643 19.4358C12.2689 18.1029 13.164 16.9141 14.2719 15.9441C15.3799 14.9741 16.6767 14.2441 18.0806 13.7999ZM51.8593 29.4219C52.1232 28.9716 52.3543 28.5015 52.5503 28.015C53.0988 26.6534 53.3604 25.1932 53.3187 23.7259C53.2769 22.2585 52.9327 20.8156 52.3077 19.4873C51.6826 18.1591 50.7902 16.9742 49.6861 16.0067C48.582 15.0393 47.2902 14.3101 45.8914 13.8649C44.4926 13.4197 43.0169 13.268 41.5568 13.4193C40.0966 13.5706 38.6835 14.0217 37.4057 14.7443C36.1279 15.4669 35.013 16.4455 34.1308 17.6188C34.0048 17.7863 33.861 17.9366 33.703 18.0677L25.1041 26.6667L26.5518 28.1144C27.3504 28.913 28.6486 28.913 29.4472 28.1144L32.1139 25.4477C34.2053 23.3563 37.0418 22.1814 39.9995 22.1814C42.9572 22.1814 45.7937 23.3563 47.8851 25.4477L51.8593 29.4219Z" fill="#E97E91"/>
</g>
<defs>
<clipPath id="clip0_265_2715">
<rect width="64" height="64" fill="white"/>
</clipPath>
</defs>
</svg>
