<svg width="120" height="120" viewBox="0 0 120 120" fill="none" xmlns="http://www.w3.org/2000/svg">
<g clip-path="url(#clip0_46_1008)">
<path fill-rule="evenodd" clip-rule="evenodd" d="M108.864 11.8261C108.761 11.7012 108.652 11.5805 108.536 11.4646C108.432 11.3605 108.324 11.2617 108.212 11.1682C107.399 10.4847 106.419 10.1012 105.419 10.0176C105.107 9.99137 104.792 9.99431 104.477 10.0274C104.04 10.0731 103.607 10.1763 103.192 10.3371L13.3021 42.7974C13.1717 42.8445 13.0434 42.8969 12.9174 42.9547C11.5683 43.5729 10.4251 44.5655 9.62356 45.8144C8.82206 47.0634 8.396 48.5162 8.396 50.0001C8.396 51.4841 8.82206 52.9369 9.62356 54.1859C10.4059 55.4049 11.5138 56.3798 12.821 57.0006L46.2736 73.7269L62.9999 107.18C63.6208 108.487 64.5956 109.595 65.8146 110.377C67.0635 111.178 68.5163 111.604 70.0004 111.604C71.4844 111.604 72.9372 111.178 74.1861 110.377C75.435 109.575 76.4276 108.432 77.0458 107.083C77.1036 106.957 77.156 106.829 77.2031 106.698L109.671 16.7886C109.776 16.5122 109.856 16.2282 109.911 15.9403C110.022 15.3624 110.029 14.7754 109.937 14.2055C109.8 13.353 109.443 12.529 108.864 11.8261ZM85.6113 27.3177L21.8591 50.3394L49.0129 63.9162L85.6113 27.3177ZM56.084 70.9872L92.6831 34.3881L69.6611 98.1413L56.084 70.9872Z" fill="#0C1A2A"/>
</g>
<defs>
<clipPath id="clip0_46_1008">
<rect width="120" height="120" fill="white"/>
</clipPath>
</defs>
</svg>
